<svg width="297" height="265" viewBox="0 0 297 265" fill="none" xmlns="http://www.w3.org/2000/svg">
<circle cx="151.5" cy="127.5" r="87" stroke="#F2F2F2" stroke-width="5"/>
<g clip-path="url(#clip0_520_79)">
<path d="M210.144 61.1968L193.911 71.2307C192.421 72.1516 191.358 73.6267 190.956 75.3314C190.553 77.0361 190.845 78.8308 191.766 80.3207C192.687 81.8106 194.162 82.8736 195.867 83.2759C197.571 83.6782 199.366 83.3868 200.856 82.4659L201.352 82.1591C200.482 82.6971 199.726 83.4013 199.128 84.2314C198.529 85.0615 198.1 86.0014 197.865 86.9972C197.63 87.9931 197.594 89.0255 197.758 90.0355C197.922 91.0455 198.283 92.0133 198.821 92.8836C199.359 93.754 200.063 94.5099 200.893 95.1081C201.724 95.7063 202.663 96.1352 203.659 96.3702C204.655 96.6052 205.687 96.6418 206.697 96.4778C207.707 96.3138 208.675 95.9525 209.546 95.4145C208.628 95.9175 207.823 96.6019 207.179 97.426C206.535 98.2502 206.065 99.1968 205.799 100.208C205.532 101.22 205.474 102.275 205.628 103.309C205.782 104.344 206.146 105.336 206.696 106.226C207.246 107.116 207.971 107.884 208.827 108.485C209.684 109.085 210.654 109.505 211.677 109.719C212.701 109.933 213.758 109.936 214.783 109.728C215.808 109.52 216.781 109.106 217.641 108.51L225.597 103.592C224.074 104.651 223.014 106.254 222.636 108.07C222.258 109.887 222.592 111.78 223.567 113.358C224.543 114.936 226.087 116.08 227.881 116.555C229.675 117.029 231.582 116.798 233.21 115.908L252.969 103.695C255.926 101.864 258.493 99.4688 260.524 96.6462C262.554 93.8235 264.009 90.6285 264.805 87.2435C265.601 83.8585 265.723 80.3499 265.163 76.918C264.603 73.4861 263.372 70.1981 261.542 67.2417L259.614 64.1228C255.181 56.9507 248.08 51.8335 239.873 49.8969C231.667 47.9603 223.028 49.3629 215.856 53.7962C213.109 55.4798 211.076 58.1134 210.144 61.1968Z" fill="#FFE500"/>
<path d="M197.88 76.5415C196.959 75.0516 196.667 73.2569 197.07 71.5522C197.472 69.8475 198.535 68.3724 200.025 67.4515L193.911 71.2306C192.421 72.1516 191.358 73.6266 190.956 75.3314C190.554 77.0361 190.845 78.8308 191.766 80.3206C192.687 81.8105 194.162 82.8735 195.867 83.2758C197.571 83.6781 199.366 83.3868 200.856 82.4658L206.97 78.6867C205.48 79.6076 203.685 79.899 201.98 79.4967C200.276 79.0944 198.801 78.0314 197.88 76.5415Z" fill="#FFF48C"/>
<path d="M229.303 109.825C228.801 109.017 228.463 108.118 228.308 107.18C228.154 106.241 228.186 105.282 228.403 104.356C228.62 103.43 229.018 102.556 229.573 101.784C230.129 101.012 230.831 100.357 231.64 99.8568L225.527 103.636C224.003 104.695 222.943 106.298 222.565 108.114C222.188 109.931 222.521 111.823 223.497 113.402C224.472 114.98 226.016 116.124 227.81 116.599C229.604 117.073 231.511 116.842 233.14 115.952L239.253 112.173C237.622 113.181 235.658 113.5 233.792 113.06C231.926 112.619 230.311 111.456 229.303 109.825Z" fill="#FFF48C"/>
<path d="M213.085 102.289C212.01 100.55 211.67 98.4553 212.139 96.4656C212.609 94.4759 213.85 92.7542 215.589 91.6793C213.831 92.7658 211.713 93.1096 209.702 92.6349C207.691 92.1603 205.951 90.9061 204.864 89.1484C203.777 87.3906 203.434 85.2732 203.908 83.262C204.383 81.2507 205.637 79.5104 207.395 78.4239L201.352 82.1592C200.482 82.6972 199.726 83.4014 199.128 84.2315C198.529 85.0616 198.1 86.0014 197.865 86.9973C197.63 87.9931 197.594 89.0255 197.758 90.0355C197.922 91.0455 198.283 92.0133 198.821 92.8837C199.359 93.7541 200.063 94.5099 200.893 95.1081C201.724 95.7064 202.663 96.1352 203.659 96.3703C204.655 96.6053 205.687 96.6418 206.697 96.4779C207.707 96.3139 208.675 95.9526 209.546 95.4146C208.628 95.9176 207.823 96.602 207.179 97.4261C206.535 98.2502 206.065 99.1968 205.799 100.208C205.532 101.22 205.474 102.275 205.628 103.309C205.782 104.344 206.146 105.336 206.696 106.226C207.246 107.116 207.971 107.884 208.827 108.485C209.684 109.085 210.654 109.505 211.677 109.719C212.701 109.933 213.758 109.936 214.783 109.728C215.809 109.52 216.781 109.106 217.641 108.51L223.754 104.731C222.895 105.276 221.936 105.644 220.933 105.816C219.93 105.988 218.903 105.96 217.911 105.733C216.919 105.506 215.982 105.085 215.153 104.493C214.325 103.902 213.622 103.153 213.085 102.289Z" fill="#FFF48C"/>
<path opacity="0.15" d="M268.579 57.626C261.924 46.8602 255.339 38.8684 253.871 39.7759C252.403 40.6833 256.608 50.1464 263.262 60.9122C269.917 71.678 276.502 79.6698 277.97 78.7623C279.438 77.8548 275.234 68.3918 268.579 57.626Z" fill="#45413C"/>
<path d="M225.544 103.625C222.138 105.73 221.081 110.194 223.184 113.595C225.286 116.996 229.751 118.046 233.157 115.941L241.203 110.968C244.608 108.863 245.665 104.399 243.563 100.998C241.461 97.5969 236.995 96.5465 233.59 98.6518L225.544 103.625Z" stroke="#45413C" stroke-linecap="round" stroke-linejoin="round"/>
<path d="M210.15 61.1682C209.597 62.9666 209.435 64.8629 209.676 66.7292C209.917 68.5955 210.555 70.3884 211.548 71.9872L228.209 98.941C228.385 99.2317 228.618 99.4844 228.893 99.6843C229.168 99.8842 229.48 100.027 229.811 100.106C230.142 100.184 230.485 100.195 230.82 100.139C231.156 100.083 231.477 99.9613 231.764 99.7801L233.147 98.9257C235.736 97.325 237.584 94.761 238.283 91.798C238.982 88.8349 238.476 85.7154 236.875 83.1257L217.991 52.5745C217.299 53.0018 216.536 53.3513 215.845 53.7785C213.111 55.4671 211.086 58.0943 210.15 61.1682Z" fill="#FFE500"/>
<path d="M232.019 96.5859L215.358 69.6321C213.912 67.3021 213.226 64.5804 213.394 61.8436C213.563 59.1067 214.578 56.4898 216.299 54.3549L215.905 53.717C214.426 54.6276 213.142 55.8207 212.125 57.2281C211.108 58.6356 210.379 60.2297 209.979 61.9192C209.579 63.6088 209.516 65.3607 209.793 67.0746C210.071 68.7886 210.684 70.431 211.596 71.908L228.279 98.8972C228.456 99.1879 228.688 99.4405 228.963 99.6405C229.238 99.8404 229.551 99.9836 229.881 100.062C230.212 100.14 230.556 100.151 230.891 100.095C231.226 100.04 231.547 99.9175 231.835 99.7363L233.217 98.8819C233.78 98.5307 234.314 98.1353 234.813 97.6995C234.29 97.8322 233.737 97.796 233.235 97.596C232.733 97.396 232.308 97.0424 232.019 96.5859Z" fill="#FFF48C"/>
<path d="M215.856 53.7962C214.377 54.7068 213.093 55.9 212.076 57.3074C211.059 58.7148 210.33 60.3089 209.93 61.9985C209.53 63.6881 209.467 65.4399 209.744 67.1539C210.022 68.8679 210.635 70.5103 211.548 71.9872L228.209 98.941C228.385 99.2317 228.618 99.4844 228.893 99.6843C229.168 99.8842 229.48 100.027 229.811 100.106C230.142 100.184 230.485 100.195 230.82 100.139C231.156 100.083 231.477 99.9613 231.764 99.7801L233.147 98.9257C235.736 97.325 237.584 94.761 238.283 91.798C238.982 88.8349 238.476 85.7154 236.875 83.1257L228.616 69.764" stroke="#45413C" stroke-linecap="round" stroke-linejoin="round"/>
<path d="M209.546 95.4146L221.472 88.0425" stroke="#45413C" stroke-linecap="round" stroke-linejoin="round"/>
<path d="M210.144 61.1968L193.911 71.2307C192.421 72.1516 191.358 73.6267 190.956 75.3314C190.553 77.0361 190.845 78.8308 191.766 80.3207C192.687 81.8106 194.162 82.8736 195.867 83.2759C197.571 83.6782 199.366 83.3868 200.856 82.4659L201.352 82.1591C200.482 82.6971 199.726 83.4013 199.128 84.2314C198.529 85.0615 198.1 86.0014 197.865 86.9972C197.63 87.9931 197.594 89.0255 197.758 90.0355C197.922 91.0455 198.283 92.0133 198.821 92.8836C199.359 93.754 200.063 94.5099 200.893 95.1081C201.724 95.7063 202.663 96.1352 203.659 96.3702C204.655 96.6052 205.687 96.6418 206.697 96.4778C207.707 96.3138 208.675 95.9525 209.546 95.4145V95.4145C208.628 95.9175 207.823 96.6019 207.179 97.426C206.535 98.2502 206.065 99.1968 205.799 100.208C205.532 101.22 205.474 102.275 205.628 103.309C205.782 104.344 206.146 105.336 206.696 106.226C207.246 107.116 207.971 107.884 208.827 108.485C209.684 109.085 210.654 109.505 211.677 109.719C212.701 109.933 213.758 109.936 214.783 109.728C215.808 109.52 216.781 109.106 217.641 108.51L225.597 103.592C224.074 104.651 223.014 106.254 222.636 108.07C222.258 109.887 222.592 111.78 223.567 113.358C224.543 114.936 226.087 116.08 227.881 116.555C229.675 117.029 231.582 116.798 233.21 115.908L252.969 103.695C255.926 101.864 258.493 99.4688 260.524 96.6462C262.554 93.8235 264.009 90.6285 264.805 87.2435C265.601 83.8585 265.723 80.3499 265.163 76.918C264.603 73.4861 263.372 70.1981 261.542 67.2417L259.614 64.1228C255.181 56.9507 248.08 51.8335 239.873 49.8969C231.667 47.9603 223.028 49.3629 215.856 53.7962C213.109 55.4798 211.076 58.1134 210.144 61.1968V61.1968Z" stroke="#45413C" stroke-linecap="round" stroke-linejoin="round"/>
<path d="M201.352 82.1592L213.278 74.7871" stroke="#45413C" stroke-linecap="round" stroke-linejoin="round"/>
<path d="M228.758 69.9943C229.639 71.4185 230.791 72.6554 232.149 73.6343C233.508 74.6132 235.046 75.315 236.675 75.6996C238.305 76.0841 239.994 76.144 241.647 75.8756C243.3 75.6073 244.883 75.0161 246.307 74.1357L249.515 72.1531" stroke="#45413C" stroke-linecap="round" stroke-linejoin="round"/>
</g>
<path opacity="0.15" d="M26.8164 55.7766C20.6059 69.6367 17.1035 81.559 18.9935 82.4058C20.8835 83.2527 27.4502 72.7035 33.6607 58.8435C39.8712 44.9834 43.3736 33.0611 41.4836 32.2143C39.5936 31.3674 33.0269 41.9166 26.8164 55.7766Z" fill="#45413C"/>
<path d="M107.718 119.779C108.597 118.375 108.883 116.679 108.512 115.064C108.142 113.449 107.145 112.048 105.741 111.168L76.5988 92.6303L109.739 102.001C110.535 102.258 111.374 102.352 112.207 102.279C113.04 102.205 113.85 101.965 114.588 101.573C115.327 101.181 115.979 100.645 116.507 99.9963C117.034 99.3475 117.427 98.5996 117.66 97.7966C117.893 96.9937 117.963 96.1521 117.865 95.3217C117.767 94.4913 117.504 93.6889 117.09 92.9622C116.677 92.2354 116.122 91.599 115.458 91.0906C114.794 90.5823 114.035 90.2123 113.225 90.0026L88.1531 82.7403C89.3072 82.2065 90.2833 81.3518 90.9649 80.2782C91.6465 79.2047 92.0047 77.9577 91.9968 76.6861C91.9889 75.4145 91.6152 74.1721 90.9203 73.1071C90.2254 72.0421 89.2387 71.1997 88.078 70.6802L82.6026 68.2268C84.1872 68.8231 85.9397 68.7926 87.5026 68.1413C89.0654 67.4901 90.3211 66.2673 91.0134 64.7222C91.7058 63.1771 91.7827 61.426 91.2285 59.8262C90.6743 58.2263 89.5307 56.8981 88.0309 56.1123L71.5817 48.7417C65.7489 46.0321 59.1069 45.6289 52.9892 47.6132C46.8714 49.5975 41.7306 53.8224 38.5986 59.4398C36.9733 62.5049 36.0038 65.8747 35.7517 69.3348C35.4996 72.7949 35.9704 76.2696 37.1342 79.5379C38.298 82.8062 40.1293 85.7965 42.5116 88.3185C44.8939 90.8405 47.775 92.8391 50.9717 94.1872C70.4324 102.907 63.9303 99.9937 99.0614 121.735C99.7572 122.178 100.534 122.479 101.347 122.621C102.16 122.763 102.992 122.742 103.797 122.56C104.602 122.378 105.363 122.039 106.036 121.562C106.709 121.084 107.281 120.478 107.718 119.779Z" fill="#FFE500"/>
<path d="M107.098 88.2705C108.332 88.9775 109.301 90.07 109.855 91.3803C110.409 92.6906 110.517 94.1464 110.164 95.5244C109.811 96.9024 109.015 98.1265 107.9 99.009C106.784 99.8914 105.41 100.384 103.987 100.41L109.673 102.026C110.469 102.283 111.308 102.377 112.141 102.304C112.974 102.23 113.784 101.99 114.522 101.598C115.261 101.206 115.913 100.67 116.441 100.021C116.969 99.3727 117.361 98.6247 117.594 97.8217C117.827 97.0188 117.897 96.1772 117.799 95.3468C117.701 94.5164 117.438 93.714 117.024 92.9873C116.611 92.2605 116.056 91.6241 115.392 91.1157C114.728 90.6074 113.969 90.2374 113.159 90.0277L107.098 88.2705Z" fill="#FFF48C"/>
<path d="M107.718 119.779C108.597 118.375 108.883 116.679 108.512 115.064C108.142 113.449 107.145 112.048 105.742 111.168L101.176 108.273C102.165 109.354 102.762 110.736 102.87 112.197C102.978 113.658 102.591 115.113 101.772 116.327C100.952 117.542 99.7479 118.445 98.3526 118.892C96.9574 119.339 95.4524 119.303 94.0799 118.791C95.6203 119.755 97.252 120.76 99.0103 121.849C99.7149 122.295 100.502 122.596 101.325 122.734C102.147 122.871 102.989 122.843 103.801 122.65C104.612 122.457 105.377 122.104 106.05 121.61C106.723 121.117 107.29 120.495 107.718 119.779Z" fill="#FFF48C"/>
<path d="M57.8722 78.7874C58.4683 77.4572 58.7965 76.0226 58.8381 74.5655C58.8797 73.1084 58.634 71.6574 58.1148 70.2953C57.5957 68.9332 56.8134 67.6867 55.8125 66.627C54.8116 65.5672 53.6118 64.715 52.2816 64.1189L49.2929 62.7797" stroke="#45413C" stroke-linecap="round" stroke-linejoin="round"/>
<path d="M107.718 119.779C108.597 118.375 108.883 116.679 108.512 115.064C108.142 113.449 107.145 112.048 105.741 111.168L76.5988 92.6303L109.739 102.001C110.535 102.258 111.374 102.352 112.207 102.279C113.04 102.205 113.85 101.965 114.588 101.573C115.327 101.181 115.979 100.645 116.507 99.9963C117.034 99.3475 117.427 98.5996 117.66 97.7966C117.893 96.9937 117.963 96.1521 117.865 95.3217C117.767 94.4913 117.504 93.6889 117.09 92.9622C116.677 92.2354 116.122 91.599 115.458 91.0906C114.794 90.5823 114.035 90.2123 113.225 90.0026L88.1531 82.7403C89.3072 82.2065 90.2833 81.3518 90.9649 80.2782C91.6465 79.2047 92.0047 77.9577 91.9968 76.6861C91.9889 75.4145 91.6152 74.1721 90.9203 73.1071C90.2254 72.0421 89.2387 71.1997 88.078 70.6802L82.6026 68.2268C84.1872 68.8231 85.9397 68.7926 87.5026 68.1413C89.0654 67.4901 90.3211 66.2673 91.0134 64.7222C91.7058 63.1771 91.7827 61.426 91.2285 59.8262C90.6743 58.2263 89.5307 56.8981 88.0309 56.1123L71.5817 48.7417C65.7489 46.0321 59.1069 45.6289 52.9892 47.6132C46.8714 49.5975 41.7306 53.8224 38.5986 59.4398C36.9733 62.5049 36.0038 65.8747 35.7517 69.3348C35.4996 72.7949 35.9704 76.2696 37.1342 79.5379C38.298 82.8062 40.1293 85.7965 42.5116 88.3185C44.8939 90.8405 47.775 92.8391 50.9717 94.1872C70.4324 102.907 63.9303 99.9937 99.0614 121.735C99.7572 122.178 100.534 122.479 101.347 122.621C102.16 122.763 102.992 122.742 103.797 122.56C104.602 122.378 105.363 122.039 106.036 121.562C106.709 121.084 107.281 120.478 107.718 119.779V119.779Z" stroke="#45413C" stroke-linecap="round" stroke-linejoin="round"/>
<path d="M82.4807 68.2543C85.8323 69.7561 89.7667 68.2565 91.2685 64.9049C92.7703 61.5533 91.2708 57.6188 87.9192 56.117L80.5273 52.8049C77.1757 51.3031 73.2412 52.8026 71.7394 56.1542C70.2376 59.5058 71.7372 63.4403 75.0888 64.9421L82.4807 68.2543Z" fill="#FFE500"/>
<path d="M82.5507 82.8324C85.9023 84.3342 89.8368 82.8347 91.3386 79.483C92.8404 76.1314 91.3408 72.197 87.9892 70.6952L75.1219 64.9295C71.7703 63.4277 67.8359 64.9273 66.3341 68.2789C64.8323 71.6305 66.3318 75.5649 69.6834 77.0668L82.5507 82.8324Z" fill="#FFE500"/>
<path d="M91.2229 64.8845C91.9423 63.279 91.9962 61.4538 91.3727 59.8086C90.7492 58.1634 89.4992 56.8323 87.8963 56.1069L82.535 53.7045C84.1378 54.43 85.3878 55.761 86.0113 57.4062C86.6348 59.0514 86.5809 60.8766 85.8615 62.4822C85.143 64.0856 83.817 65.338 82.1752 65.9638C80.5333 66.5895 78.7101 66.5374 77.1067 65.8189L82.5821 68.2724C84.1791 68.9521 85.979 68.978 87.5949 68.3444C89.2107 67.7109 90.5134 66.4685 91.2229 64.8845Z" fill="#FFF48C"/>
<path d="M91.3386 79.483C92.053 77.8727 92.1017 76.0453 91.4743 74.3991C90.8469 72.7529 89.5942 71.4215 87.9892 70.6952L82.5138 68.2417C84.1033 68.9756 85.3393 70.3067 85.9536 71.9462C86.5678 73.5857 86.5107 75.4012 85.7947 76.9989C85.0753 78.6045 83.749 79.8595 82.1061 80.4892C80.4633 81.1189 78.6379 81.0719 77.0296 80.3585L82.5051 82.812C83.3037 83.1734 84.1657 83.374 85.0418 83.4023C85.9179 83.4306 86.791 83.2861 87.6113 82.977C88.4316 82.6679 89.1829 82.2002 89.8224 81.6007C90.462 81.0012 90.9772 80.2816 91.3386 79.483Z" fill="#FFF48C"/>
<path d="M82.4807 68.2543C85.8323 69.7561 89.7667 68.2565 91.2685 64.9049C92.7703 61.5533 91.2708 57.6188 87.9192 56.117L80.5273 52.8049C77.1757 51.3031 73.2412 52.8026 71.7394 56.1542C70.2376 59.5058 71.7372 63.4403 75.0888 64.9421L82.4807 68.2543Z" stroke="#45413C" stroke-linecap="round" stroke-linejoin="round"/>
<path d="M82.5507 82.8324C85.9023 84.3342 89.8368 82.8347 91.3386 79.483C92.8404 76.1314 91.3408 72.197 87.9892 70.6952L75.1219 64.9295C71.7703 63.4277 67.8359 64.9273 66.3341 68.2789C64.8323 71.6305 66.3318 75.5649 69.6834 77.0668L82.5507 82.8324Z" stroke="#45413C" stroke-linecap="round" stroke-linejoin="round"/>
<path d="M50.9717 94.1872C54.1129 95.5875 57.681 95.686 60.8946 94.4612C64.1083 93.2363 66.7057 90.788 68.118 87.6522L76.378 69.2182C76.5628 68.8058 76.6642 68.3609 76.6762 67.9092C76.6883 67.4575 76.6109 67.0078 76.4484 66.5862C76.286 66.1645 76.0417 65.7791 75.7296 65.4523C75.4175 65.1255 75.0439 64.8636 74.6301 64.6819C72.3248 63.6489 69.7035 63.574 67.343 64.4737C64.9825 65.3734 63.076 67.1739 62.043 69.4793L57.8721 78.7875" fill="#FFE500"/>
<path d="M50.9717 94.1872C54.1129 95.5875 57.681 95.686 60.8946 94.4612C64.1083 93.2363 66.7057 90.788 68.118 87.6522L76.378 69.2182C76.5628 68.8058 76.6642 68.3609 76.6762 67.9092C76.6883 67.4575 76.6109 67.0078 76.4484 66.5862C76.286 66.1645 76.0417 65.7791 75.7296 65.4523C75.4175 65.1255 75.0439 64.8636 74.6301 64.6819C73.6145 64.2333 72.5272 63.9687 71.4189 63.9004C71.7062 64.3755 71.8737 64.9133 71.9069 65.4675C71.9402 66.0217 71.8382 66.5756 71.6098 67.0816L62.9 86.5194C61.865 88.8132 60.1876 90.7581 58.0708 92.1188C55.9539 93.4796 53.4882 94.198 50.9717 94.1872Z" fill="#FFF48C"/>
<path d="M50.9717 94.1872C54.1129 95.5875 57.681 95.686 60.8946 94.4612C64.1083 93.2363 66.7057 90.788 68.118 87.6522L76.378 69.2182C76.5628 68.8058 76.6642 68.3609 76.6762 67.9092C76.6883 67.4575 76.6109 67.0078 76.4484 66.5862C76.286 66.1645 76.0417 65.7791 75.7296 65.4523C75.4175 65.1255 75.0439 64.8636 74.6301 64.6819C72.3248 63.6489 69.7035 63.574 67.343 64.4737C64.9825 65.3734 63.076 67.1739 62.043 69.4793L57.8721 78.7875" stroke="#45413C" stroke-linecap="round" stroke-linejoin="round"/>
<path opacity="0.15" d="M148 262.5C163.188 262.5 175.5 260.821 175.5 258.75C175.5 256.679 163.188 255 148 255C132.812 255 120.5 256.679 120.5 258.75C120.5 260.821 132.812 262.5 148 262.5Z" fill="#45413C"/>
<path d="M175.325 214.425L170.675 218.8V181.3C170.712 180.496 170.588 179.693 170.309 178.939C170.031 178.184 169.604 177.493 169.054 176.905C168.504 176.318 167.842 175.847 167.107 175.52C166.373 175.193 165.58 175.016 164.775 175C163.21 175 161.71 175.622 160.603 176.728C159.497 177.835 158.875 179.335 158.875 180.9V175.625C158.902 174.776 158.76 173.93 158.459 173.135C158.158 172.341 157.703 171.614 157.12 170.996C156.536 170.378 155.837 169.881 155.062 169.535C154.286 169.188 153.449 168.998 152.6 168.975C150.929 168.975 149.327 169.639 148.145 170.82C146.964 172.002 146.3 173.604 146.3 175.275V175C146.33 174.22 146.203 173.441 145.925 172.711C145.647 171.981 145.225 171.315 144.683 170.753C144.141 170.19 143.492 169.742 142.773 169.437C142.054 169.132 141.281 168.974 140.5 168.975C139.706 168.961 138.918 169.108 138.182 169.406C137.446 169.705 136.778 170.148 136.218 170.711C135.658 171.273 135.217 171.943 134.922 172.68C134.627 173.417 134.483 174.206 134.5 175V185C134.534 184.292 134.422 183.585 134.171 182.922C133.92 182.259 133.535 181.655 133.041 181.147C132.547 180.639 131.954 180.238 131.299 179.968C130.643 179.699 129.939 179.567 129.231 179.581C128.522 179.594 127.824 179.754 127.18 180.048C126.535 180.343 125.958 180.767 125.484 181.294C125.01 181.82 124.649 182.439 124.424 183.111C124.199 183.783 124.114 184.494 124.175 185.2V227.5C124.168 233.307 126.46 238.88 130.55 243.002C134.639 247.124 140.194 249.46 146 249.5C150.797 249.502 155.541 248.497 159.924 246.551C164.308 244.604 168.235 241.759 171.45 238.2L188.95 219.1C189.535 218.502 189.862 217.699 189.862 216.862C189.862 216.026 189.535 215.223 188.95 214.625C187.146 212.836 184.718 211.816 182.178 211.779C179.638 211.742 177.181 212.69 175.325 214.425Z" fill="#FFE500"/>
<path d="M140.5 175.975C141.281 175.961 142.056 176.105 142.78 176.399C143.503 176.692 144.16 177.128 144.711 177.682C145.262 178.235 145.696 178.894 145.986 179.619C146.276 180.343 146.417 181.119 146.4 181.9V182.275C146.4 180.604 147.064 179.002 148.245 177.82C149.427 176.639 151.029 175.975 152.7 175.975C154.378 176.04 155.963 176.759 157.118 177.979C158.272 179.198 158.903 180.821 158.875 182.5V187.825C158.882 186.265 159.506 184.77 160.612 183.669C161.718 182.568 163.215 181.95 164.775 181.95C165.571 181.966 166.355 182.14 167.083 182.461C167.811 182.782 168.469 183.244 169.017 183.82C169.566 184.397 169.995 185.076 170.279 185.819C170.564 186.562 170.698 187.355 170.675 188.15V181.25C170.705 180.45 170.576 179.653 170.294 178.904C170.013 178.155 169.585 177.47 169.036 176.888C168.486 176.306 167.827 175.84 167.095 175.515C166.364 175.191 165.575 175.016 164.775 175C163.21 175 161.71 175.622 160.603 176.728C159.497 177.835 158.875 179.335 158.875 180.9V175.625C158.902 174.776 158.76 173.93 158.459 173.135C158.158 172.341 157.703 171.614 157.119 170.996C156.536 170.378 155.837 169.881 155.061 169.535C154.286 169.188 153.449 168.998 152.6 168.975C150.929 168.975 149.327 169.639 148.145 170.82C146.964 172.002 146.3 173.604 146.3 175.275V175C146.33 174.22 146.203 173.441 145.925 172.711C145.647 171.981 145.225 171.315 144.683 170.753C144.141 170.19 143.492 169.742 142.773 169.437C142.054 169.132 141.281 168.974 140.5 168.975C139.706 168.961 138.918 169.108 138.182 169.406C137.446 169.705 136.778 170.148 136.218 170.711C135.658 171.273 135.217 171.943 134.922 172.68C134.627 173.417 134.483 174.206 134.5 175V182C134.483 181.206 134.627 180.417 134.922 179.68C135.217 178.943 135.658 178.273 136.218 177.711C136.778 177.148 137.446 176.705 138.182 176.406C138.918 176.108 139.706 175.961 140.5 175.975Z" fill="#FFF48C"/>
<path d="M129.35 186.65C130.718 186.657 132.028 187.205 132.993 188.175C133.958 189.144 134.5 190.457 134.5 191.825V184.825C134.534 184.117 134.422 183.41 134.171 182.747C133.92 182.084 133.535 181.48 133.041 180.972C132.547 180.464 131.954 180.063 131.299 179.793C130.643 179.524 129.939 179.392 129.231 179.406C128.522 179.419 127.824 179.579 127.18 179.873C126.535 180.168 125.958 180.592 125.484 181.119C125.01 181.645 124.649 182.264 124.424 182.936C124.199 183.608 124.114 184.319 124.175 185.025V192.025C124.152 191.33 124.268 190.637 124.517 189.987C124.767 189.338 125.144 188.745 125.626 188.243C126.109 187.742 126.687 187.343 127.327 187.069C127.966 186.795 128.654 186.653 129.35 186.65Z" fill="#FFF48C"/>
<path d="M148 223.7C155.962 222.96 163.968 222.818 171.95 223.275C177.65 220 184.3 217.225 188 220.175L188.975 219.1C189.56 218.502 189.888 217.699 189.888 216.863C189.888 216.026 189.56 215.223 188.975 214.625C187.171 212.836 184.743 211.816 182.203 211.779C179.663 211.742 177.206 212.69 175.35 214.425L170.7 218.8H158.725C156.691 218.799 154.68 219.236 152.829 220.082C150.978 220.927 149.332 222.161 148 223.7Z" fill="#FFF48C"/>
<path d="M134.5 184.825V205.05" stroke="#45413C" stroke-linecap="round" stroke-linejoin="round"/>
<path d="M146.3 175.275V205.05" stroke="#45413C" stroke-linecap="round" stroke-linejoin="round"/>
<path d="M158.875 180.95V205.05" stroke="#45413C" stroke-linecap="round" stroke-linejoin="round"/>
<path d="M170.675 218.8H158.725C156.683 218.812 154.667 219.264 152.816 220.127C150.965 220.99 149.322 222.243 148 223.8" stroke="#45413C" stroke-linecap="round" stroke-linejoin="round"/>
<path d="M175.325 214.425L170.675 218.8V181.3C170.712 180.496 170.588 179.693 170.309 178.939C170.031 178.184 169.604 177.493 169.054 176.905C168.504 176.318 167.842 175.847 167.107 175.52C166.373 175.193 165.58 175.016 164.775 175C163.21 175 161.71 175.622 160.603 176.728C159.497 177.835 158.875 179.335 158.875 180.9V175.625C158.902 174.776 158.76 173.93 158.459 173.135C158.158 172.341 157.703 171.614 157.12 170.996C156.536 170.378 155.837 169.881 155.062 169.535C154.286 169.188 153.449 168.998 152.6 168.975C150.929 168.975 149.327 169.639 148.145 170.82C146.964 172.002 146.3 173.604 146.3 175.275V175C146.33 174.22 146.203 173.441 145.925 172.711C145.647 171.981 145.225 171.315 144.683 170.753C144.141 170.19 143.492 169.742 142.773 169.437C142.054 169.132 141.281 168.974 140.5 168.975C139.706 168.961 138.918 169.108 138.182 169.406C137.446 169.705 136.778 170.148 136.218 170.711C135.658 171.273 135.217 171.943 134.922 172.68C134.627 173.417 134.483 174.206 134.5 175V185C134.534 184.292 134.422 183.585 134.171 182.922C133.92 182.259 133.535 181.655 133.041 181.147C132.547 180.639 131.954 180.238 131.299 179.968C130.643 179.699 129.939 179.567 129.231 179.581C128.522 179.594 127.824 179.754 127.18 180.048C126.535 180.343 125.958 180.767 125.484 181.294C125.01 181.82 124.649 182.439 124.424 183.111C124.199 183.783 124.114 184.494 124.175 185.2V227.5C124.168 233.307 126.46 238.88 130.55 243.002C134.639 247.124 140.194 249.46 146 249.5C150.797 249.502 155.541 248.497 159.924 246.551C164.308 244.604 168.235 241.759 171.45 238.2L188.95 219.1C189.535 218.502 189.862 217.699 189.862 216.862C189.862 216.026 189.535 215.223 188.95 214.625V214.625C187.146 212.836 184.718 211.816 182.178 211.779C179.638 211.742 177.181 212.69 175.325 214.425V214.425Z" stroke="#45413C" stroke-linecap="round" stroke-linejoin="round"/>
<defs>
<clipPath id="clip0_520_79">
<rect width="100" height="100" fill="white" transform="translate(211.579 151.641) rotate(-121.722)"/>
</clipPath>
</defs>
</svg>
