<svg width="60" height="73" viewBox="0 0 60 73" fill="none" xmlns="http://www.w3.org/2000/svg">
<path d="M46.3884 41.3161L42.2637 45.1969V11.9334C42.2964 11.2205 42.1861 10.5084 41.9391 9.83886C41.6922 9.16936 41.3136 8.5561 40.8258 8.03525C40.3381 7.5144 39.7509 7.09651 39.099 6.80623C38.4472 6.51595 37.7437 6.35916 37.0303 6.34511C35.6423 6.34511 34.3111 6.89648 33.3297 7.87795C32.3482 8.85941 31.7968 10.1906 31.7968 11.5786V6.8995C31.8205 6.14626 31.6951 5.39577 31.4278 4.69114C31.1606 3.98651 30.7567 3.34162 30.2395 2.79351C29.7223 2.24539 29.1019 1.80486 28.414 1.49721C27.726 1.18956 26.9841 1.02085 26.2307 1.00077C24.7486 1.00077 23.3272 1.58953 22.2792 2.63754C21.2312 3.68554 20.6425 5.10694 20.6425 6.58904V6.34511C20.6693 5.65288 20.5561 4.96236 20.3097 4.31495C20.0632 3.66754 19.6885 3.07657 19.208 2.5775C18.7276 2.07842 18.1513 1.68152 17.5138 1.41058C16.8762 1.13964 16.1905 1.00025 15.4977 1.00077C14.7936 0.988676 14.0943 1.11881 13.4416 1.38339C12.789 1.64797 12.1965 2.04155 11.6995 2.54055C11.2026 3.03955 10.8115 3.63371 10.5496 4.28744C10.2878 4.94117 10.1605 5.64104 10.1756 6.34511V15.2154C10.2054 14.5875 10.1059 13.9601 9.88324 13.3722C9.66063 12.7844 9.31964 12.2485 8.88141 11.7978C8.44319 11.3471 7.91707 10.9912 7.33566 10.7522C6.75426 10.5132 6.12996 10.3962 5.50146 10.4084C4.87296 10.4205 4.25366 10.5617 3.68195 10.823C3.11024 11.0843 2.59829 11.4603 2.17785 11.9276C1.75741 12.395 1.43743 12.9437 1.23775 13.5397C1.03807 14.1358 0.962939 14.7665 1.01702 15.3928V52.914C1.01104 58.0646 3.04383 63.0082 6.67127 66.6647C10.2987 70.3212 15.2259 72.3934 20.3764 72.4286C24.6311 72.4305 28.8389 71.5393 32.7275 69.8127C36.6162 68.0861 40.0992 65.5625 42.9512 62.4052L58.4741 45.463C58.9929 44.9326 59.2834 44.2202 59.2834 43.4782C59.2834 42.7363 58.9929 42.0239 58.4741 41.4935C56.8735 39.907 54.7205 39.0023 52.467 38.9692C50.2136 38.9361 48.0349 39.7773 46.3884 41.3161Z" fill="#FFE500"/>
<path d="M15.4978 7.21002C16.1903 7.19791 16.8781 7.32575 17.5199 7.58587C18.1618 7.84598 18.7446 8.23303 19.2333 8.72379C19.722 9.21456 20.1065 9.79894 20.3639 10.4419C20.6213 11.0849 20.7463 11.7732 20.7312 12.4656V12.7983C20.7312 11.3162 21.32 9.89478 22.368 8.84678C23.416 7.79878 24.8374 7.21002 26.3195 7.21002C27.8077 7.26777 29.2142 7.90579 30.2379 8.98752C31.2616 10.0692 31.8212 11.5087 31.7969 12.9979V17.7213C31.8028 16.3371 32.3567 15.0117 33.3376 14.035C34.3184 13.0583 35.6462 12.51 37.0303 12.51C37.736 12.5243 38.4319 12.6783 39.0778 12.9631C39.7236 13.2478 40.3067 13.6577 40.7933 14.169C41.2799 14.6804 41.6603 15.283 41.9127 15.9422C42.1651 16.6014 42.2845 17.304 42.2638 18.0096V11.8891C42.2905 11.1799 42.1756 10.4725 41.9259 9.80814C41.6762 9.14381 41.2967 8.53587 40.8095 8.01979C40.3223 7.50372 39.7372 7.08984 39.0884 6.80232C38.4395 6.5148 37.7399 6.35939 37.0303 6.34517C35.6423 6.34517 34.3112 6.89655 33.3297 7.87801C32.3483 8.85947 31.7969 10.1906 31.7969 11.5786V6.89956C31.8205 6.14632 31.6951 5.39583 31.4279 4.6912C31.1606 3.98657 30.7568 3.34168 30.2396 2.79357C29.7224 2.24545 29.102 1.80492 28.4141 1.49727C27.7261 1.18962 26.9841 1.02091 26.2308 1.00083C24.7487 1.00083 23.3273 1.58959 22.2793 2.6376C21.2313 3.6856 20.6425 5.107 20.6425 6.5891V6.34517C20.6694 5.65294 20.5562 4.96242 20.3097 4.31501C20.0632 3.6676 19.6885 3.07663 19.2081 2.57756C18.7277 2.07848 18.1514 1.68158 17.5138 1.41064C16.8762 1.1397 16.1905 1.00031 15.4978 1.00083C14.7937 0.988737 14.0943 1.11887 13.4417 1.38345C12.7891 1.64803 12.1965 2.04161 11.6996 2.54061C11.2027 3.03961 10.8116 3.63377 10.5497 4.2875C10.2878 4.94124 10.1606 5.6411 10.1756 6.34517V12.5543C10.1606 11.8503 10.2878 11.1504 10.5497 10.4967C10.8116 9.84295 11.2027 9.24879 11.6996 8.74979C12.1965 8.25079 12.7891 7.85721 13.4417 7.59264C14.0943 7.32806 14.7937 7.19792 15.4978 7.21002Z" fill="#FFF48C"/>
<path d="M5.60738 16.679C6.82098 16.6848 7.98286 17.171 8.83893 18.0313C9.695 18.8915 10.1756 20.0557 10.1756 21.2693V15.0601C10.2054 14.4322 10.1059 13.8049 9.88324 13.217C9.66063 12.6291 9.31964 12.0932 8.88141 11.6426C8.44319 11.1919 7.91707 10.836 7.33566 10.597C6.75426 10.358 6.12996 10.2409 5.50146 10.2531C4.87296 10.2653 4.25366 10.4064 3.68195 10.6678C3.11024 10.9291 2.59829 11.3051 2.17785 11.7724C1.75741 12.2397 1.43743 12.7884 1.23775 13.3845C1.03807 13.9805 0.962939 14.6113 1.01702 15.2375V21.4467C0.996245 20.8299 1.09946 20.2152 1.32055 19.639C1.54164 19.0628 1.87611 18.5369 2.30415 18.0923C2.73219 17.6477 3.2451 17.2936 3.8125 17.0508C4.37989 16.808 4.99024 16.6816 5.60738 16.679Z" fill="#FFF48C"/>
<path d="M22.1505 49.5432C29.2126 48.8869 36.3139 48.7609 43.3948 49.1662C48.4508 46.2612 54.3496 43.7997 57.6316 46.4165L58.4964 45.4629C59.0152 44.9325 59.3056 44.2201 59.3056 43.4782C59.3056 42.7363 59.0152 42.0239 58.4964 41.4935C56.8958 39.907 54.7427 39.0022 52.4893 38.9691C50.2359 38.9361 48.0572 39.7772 46.4107 41.3161L42.286 45.1968H31.6639C29.8591 45.1961 28.0753 45.5839 26.4338 46.3339C24.7923 47.0839 23.3314 48.1784 22.1505 49.5432Z" fill="#FFF48C"/>
<path d="M10.1757 15.0602V33.0003" stroke="#45413C" stroke-linecap="round" stroke-linejoin="round"/>
<path d="M20.6426 6.58905V33.0003" stroke="#45413C" stroke-linecap="round" stroke-linejoin="round"/>
<path d="M31.7969 11.6229V33.0003" stroke="#45413C" stroke-linecap="round" stroke-linejoin="round"/>
<path d="M42.2638 45.1969H31.6639C29.8522 45.2072 28.0642 45.6088 26.4223 46.3743C24.7803 47.1398 23.3231 48.251 22.1505 49.632" stroke="#45413C" stroke-linecap="round" stroke-linejoin="round"/>
<path d="M46.3884 41.3161L42.2637 45.1969V11.9334C42.2964 11.2205 42.1861 10.5084 41.9391 9.83886C41.6922 9.16936 41.3136 8.5561 40.8258 8.03525C40.3381 7.5144 39.7509 7.09651 39.099 6.80623C38.4472 6.51595 37.7437 6.35916 37.0303 6.3451C35.6423 6.3451 34.3111 6.89648 33.3297 7.87795C32.3482 8.85941 31.7968 10.1906 31.7968 11.5786V6.8995C31.8205 6.14626 31.6951 5.39577 31.4278 4.69114C31.1606 3.98651 30.7567 3.34162 30.2395 2.79351C29.7223 2.24539 29.1019 1.80486 28.414 1.49721C27.726 1.18956 26.9841 1.02085 26.2307 1.00077C24.7486 1.00077 23.3272 1.58953 22.2792 2.63754C21.2312 3.68554 20.6425 5.10694 20.6425 6.58904V6.3451C20.6693 5.65288 20.5561 4.96236 20.3097 4.31495C20.0632 3.66754 19.6885 3.07657 19.208 2.5775C18.7276 2.07842 18.1513 1.68152 17.5137 1.41058C16.8762 1.13964 16.1905 1.00025 15.4977 1.00077C14.7936 0.988676 14.0943 1.11881 13.4416 1.38339C12.789 1.64797 12.1965 2.04155 11.6995 2.54055C11.2026 3.03955 10.8115 3.63371 10.5496 4.28744C10.2878 4.94117 10.1605 5.64103 10.1756 6.3451V15.2154C10.2054 14.5875 10.1059 13.9601 9.88324 13.3722C9.66063 12.7844 9.31964 12.2485 8.88141 11.7978C8.44319 11.3471 7.91707 10.9912 7.33566 10.7522C6.75426 10.5132 6.12996 10.3962 5.50146 10.4084C4.87296 10.4205 4.25366 10.5617 3.68195 10.823C3.11024 11.0843 2.59829 11.4603 2.17785 11.9276C1.75741 12.395 1.43743 12.9437 1.23775 13.5397C1.03807 14.1358 0.962939 14.7665 1.01702 15.3928V52.914C1.01104 58.0646 3.04383 63.0082 6.67127 66.6647C10.2987 70.3212 15.2259 72.3934 20.3764 72.4286C24.6311 72.4305 28.8389 71.5393 32.7275 69.8127C36.6162 68.0861 40.0992 65.5625 42.9512 62.4052L58.4741 45.463C58.9929 44.9326 59.2834 44.2202 59.2834 43.4782C59.2834 42.7363 58.9929 42.0239 58.4741 41.4935V41.4935C56.8735 39.907 54.7205 39.0023 52.467 38.9692C50.2136 38.9361 48.0349 39.7773 46.3884 41.3161V41.3161Z" stroke="#45413C" stroke-linecap="round" stroke-linejoin="round"/>
</svg>
