<svg width="100" height="100" viewBox="0 0 100 100" fill="none" xmlns="http://www.w3.org/2000/svg">
<circle cx="50" cy="50" r="48" stroke="#F2F2F2" stroke-width="4"/>
<path d="M73.3884 55.3161L69.2637 59.1969V25.9334C69.2964 25.2205 69.1861 24.5084 68.9391 23.8389C68.6922 23.1694 68.3136 22.5561 67.8258 22.0353C67.3381 21.5144 66.7509 21.0965 66.099 20.8062C65.4472 20.516 64.7437 20.3592 64.0303 20.3451C62.6423 20.3451 61.3111 20.8965 60.3297 21.8779C59.3482 22.8594 58.7968 24.1906 58.7968 25.5786V20.8995C58.8205 20.1463 58.6951 19.3958 58.4278 18.6911C58.1606 17.9865 57.7567 17.3416 57.2395 16.7935C56.7223 16.2454 56.1019 15.8049 55.414 15.4972C54.726 15.1896 53.9841 15.0208 53.2307 15.0008C51.7486 15.0008 50.3272 15.5895 49.2792 16.6375C48.2312 17.6855 47.6425 19.1069 47.6425 20.589V20.3451C47.6693 19.6529 47.5561 18.9624 47.3097 18.3149C47.0632 17.6675 46.6885 17.0766 46.208 16.5775C45.7276 16.0784 45.1513 15.6815 44.5138 15.4106C43.8762 15.1396 43.1905 15.0003 42.4977 15.0008C41.7936 14.9887 41.0943 15.1188 40.4416 15.3834C39.789 15.648 39.1965 16.0415 38.6995 16.5405C38.2026 17.0395 37.8115 17.6337 37.5496 18.2874C37.2878 18.9412 37.1605 19.641 37.1756 20.3451V29.2154C37.2054 28.5875 37.1059 27.9601 36.8832 27.3722C36.6606 26.7844 36.3196 26.2485 35.8814 25.7978C35.4432 25.3471 34.9171 24.9912 34.3357 24.7522C33.7543 24.5132 33.13 24.3962 32.5015 24.4084C31.873 24.4205 31.2537 24.5617 30.6819 24.823C30.1102 25.0843 29.5983 25.4603 29.1778 25.9276C28.7574 26.395 28.4374 26.9437 28.2377 27.5397C28.0381 28.1358 27.9629 28.7665 28.017 29.3928V66.914C28.011 72.0646 30.0438 77.0082 33.6713 80.6647C37.2987 84.3212 42.2259 86.3934 47.3764 86.4286C51.6311 86.4305 55.8389 85.5393 59.7275 83.8127C63.6162 82.0861 67.0992 79.5625 69.9512 76.4052L85.4741 59.463C85.9929 58.9326 86.2834 58.2202 86.2834 57.4782C86.2834 56.7363 85.9929 56.0239 85.4741 55.4935C83.8735 53.907 81.7205 53.0023 79.467 52.9692C77.2136 52.9361 75.0349 53.7773 73.3884 55.3161Z" fill="#FFE500"/>
<path d="M42.4978 21.21C43.1903 21.1979 43.8781 21.3257 44.5199 21.5859C45.1618 21.846 45.7446 22.233 46.2333 22.7238C46.722 23.2146 47.1065 23.7989 47.3639 24.4419C47.6213 25.0849 47.7463 25.7732 47.7312 26.4656V26.7983C47.7312 25.3162 48.32 23.8948 49.368 22.8468C50.416 21.7988 51.8374 21.21 53.3195 21.21C54.8077 21.2678 56.2142 21.9058 57.2379 22.9875C58.2616 24.0692 58.8212 25.5087 58.7969 26.9979V31.7213C58.8028 30.3371 59.3567 29.0117 60.3376 28.035C61.3184 27.0583 62.6462 26.51 64.0303 26.51C64.736 26.5243 65.4319 26.6783 66.0778 26.9631C66.7236 27.2478 67.3067 27.6577 67.7933 28.169C68.2799 28.6804 68.6603 29.283 68.9127 29.9422C69.1651 30.6014 69.2845 31.304 69.2638 32.0096V25.8891C69.2905 25.1799 69.1756 24.4725 68.9259 23.8081C68.6762 23.1438 68.2967 22.5359 67.8095 22.0198C67.3223 21.5037 66.7372 21.0898 66.0884 20.8023C65.4395 20.5148 64.7399 20.3594 64.0303 20.3452C62.6423 20.3452 61.3112 20.8965 60.3297 21.878C59.3483 22.8595 58.7969 24.1906 58.7969 25.5786V20.8996C58.8205 20.1463 58.6951 19.3958 58.4279 18.6912C58.1606 17.9866 57.7568 17.3417 57.2396 16.7936C56.7224 16.2455 56.102 15.8049 55.4141 15.4973C54.7261 15.1896 53.9841 15.0209 53.2308 15.0008C51.7487 15.0008 50.3273 15.5896 49.2793 16.6376C48.2313 17.6856 47.6425 19.107 47.6425 20.5891V20.3452C47.6694 19.6529 47.5562 18.9624 47.3097 18.315C47.0632 17.6676 46.6885 17.0766 46.2081 16.5776C45.7277 16.0785 45.1514 15.6816 44.5138 15.4106C43.8762 15.1397 43.1905 15.0003 42.4978 15.0008C41.7937 14.9887 41.0943 15.1189 40.4417 15.3835C39.7891 15.648 39.1965 16.0416 38.6996 16.5406C38.2027 17.0396 37.8116 17.6338 37.5497 18.2875C37.2878 18.9412 37.1606 19.6411 37.1756 20.3452V26.5543C37.1606 25.8503 37.2878 25.1504 37.5497 24.4967C37.8116 23.8429 38.2027 23.2488 38.6996 22.7498C39.1965 22.2508 39.7891 21.8572 40.4417 21.5926C41.0943 21.3281 41.7937 21.1979 42.4978 21.21Z" fill="#FFF48C"/>
<path d="M32.6074 30.679C33.821 30.6848 34.9829 31.171 35.8389 32.0313C36.695 32.8915 37.1756 34.0557 37.1756 35.2693V29.0601C37.2054 28.4322 37.1059 27.8049 36.8832 27.217C36.6606 26.6291 36.3196 26.0932 35.8814 25.6426C35.4432 25.1919 34.9171 24.836 34.3357 24.597C33.7543 24.358 33.13 24.2409 32.5015 24.2531C31.873 24.2653 31.2537 24.4064 30.6819 24.6678C30.1102 24.9291 29.5983 25.3051 29.1778 25.7724C28.7574 26.2397 28.4374 26.7884 28.2377 27.3845C28.0381 27.9805 27.9629 28.6113 28.017 29.2375V35.4467C27.9962 34.8299 28.0995 34.2152 28.3205 33.639C28.5416 33.0628 28.8761 32.5369 29.3042 32.0923C29.7322 31.6477 30.2451 31.2936 30.8125 31.0508C31.3799 30.808 31.9902 30.6816 32.6074 30.679Z" fill="#FFF48C"/>
<path d="M49.1505 63.5432C56.2126 62.8869 63.3139 62.7609 70.3948 63.1662C75.4508 60.2612 81.3496 57.7997 84.6316 60.4165L85.4964 59.4629C86.0152 58.9325 86.3056 58.2201 86.3056 57.4782C86.3056 56.7363 86.0152 56.0239 85.4964 55.4935C83.8958 53.907 81.7427 53.0022 79.4893 52.9691C77.2359 52.9361 75.0572 53.7772 73.4107 55.3161L69.286 59.1968H58.6639C56.8591 59.1961 55.0753 59.5839 53.4338 60.3339C51.7923 61.0839 50.3314 62.1784 49.1505 63.5432Z" fill="#FFF48C"/>
<path d="M37.1757 29.0602V47.0003" stroke="#45413C" stroke-linecap="round" stroke-linejoin="round"/>
<path d="M47.6426 20.5891V47.0003" stroke="#45413C" stroke-linecap="round" stroke-linejoin="round"/>
<path d="M58.7969 25.6229V47.0003" stroke="#45413C" stroke-linecap="round" stroke-linejoin="round"/>
<path d="M69.2638 59.1969H58.6639C56.8522 59.2072 55.0642 59.6088 53.4223 60.3743C51.7803 61.1398 50.3231 62.251 49.1505 63.632" stroke="#45413C" stroke-linecap="round" stroke-linejoin="round"/>
<path d="M73.3884 55.3161L69.2637 59.1969V25.9334C69.2964 25.2205 69.1861 24.5084 68.9391 23.8389C68.6922 23.1694 68.3136 22.5561 67.8258 22.0353C67.3381 21.5144 66.7509 21.0965 66.099 20.8062C65.4472 20.516 64.7437 20.3592 64.0303 20.3451C62.6423 20.3451 61.3111 20.8965 60.3297 21.8779C59.3482 22.8594 58.7968 24.1906 58.7968 25.5786V20.8995C58.8205 20.1463 58.6951 19.3958 58.4278 18.6911C58.1606 17.9865 57.7567 17.3416 57.2395 16.7935C56.7223 16.2454 56.1019 15.8049 55.414 15.4972C54.726 15.1896 53.9841 15.0208 53.2307 15.0008C51.7486 15.0008 50.3272 15.5895 49.2792 16.6375C48.2312 17.6855 47.6425 19.1069 47.6425 20.589V20.3451C47.6693 19.6529 47.5561 18.9624 47.3097 18.3149C47.0632 17.6675 46.6885 17.0766 46.208 16.5775C45.7276 16.0784 45.1513 15.6815 44.5137 15.4106C43.8762 15.1396 43.1905 15.0003 42.4977 15.0008C41.7936 14.9887 41.0943 15.1188 40.4416 15.3834C39.789 15.648 39.1965 16.0415 38.6995 16.5405C38.2026 17.0395 37.8115 17.6337 37.5496 18.2874C37.2878 18.9412 37.1605 19.641 37.1756 20.3451V29.2154C37.2054 28.5875 37.1059 27.9601 36.8832 27.3722C36.6606 26.7844 36.3196 26.2485 35.8814 25.7978C35.4432 25.3471 34.9171 24.9912 34.3357 24.7522C33.7543 24.5132 33.13 24.3962 32.5015 24.4084C31.873 24.4205 31.2537 24.5617 30.6819 24.823C30.1102 25.0843 29.5983 25.4603 29.1778 25.9276C28.7574 26.395 28.4374 26.9437 28.2377 27.5397C28.0381 28.1358 27.9629 28.7665 28.017 29.3928V66.914C28.011 72.0646 30.0438 77.0082 33.6713 80.6647C37.2987 84.3212 42.2259 86.3934 47.3764 86.4286C51.6311 86.4305 55.8389 85.5393 59.7275 83.8127C63.6162 82.0861 67.0992 79.5625 69.9512 76.4052L85.4741 59.463C85.9929 58.9326 86.2834 58.2202 86.2834 57.4782C86.2834 56.7363 85.9929 56.0239 85.4741 55.4935V55.4935C83.8735 53.907 81.7205 53.0023 79.467 52.9692C77.2136 52.9361 75.0349 53.7773 73.3884 55.3161V55.3161Z" stroke="#45413C" stroke-linecap="round" stroke-linejoin="round"/>
</svg>
