<svg width="52" height="62" viewBox="0 0 52 62" fill="none" xmlns="http://www.w3.org/2000/svg">
<path d="M48.3119 24.8709L48.3119 7.75123C48.3119 6.17993 47.7508 4.67298 46.752 3.5619C45.7532 2.45082 44.3985 1.82662 42.986 1.82662C41.5735 1.82662 40.2188 2.45082 39.22 3.5619C38.2212 4.67298 37.66 6.17993 37.66 7.75123V8.27454C37.66 7.35661 37.4975 6.44767 37.1817 5.59962C36.8659 4.75156 36.4031 3.981 35.8196 3.33192C35.2361 2.68285 34.5434 2.16797 33.7811 1.8167C33.0187 1.46542 32.2016 1.28462 31.3764 1.28462C30.5513 1.28462 29.7342 1.46542 28.9718 1.8167C28.2094 2.16797 27.5167 2.68285 26.9332 3.33192C26.3498 3.981 25.8869 4.75156 25.5711 5.59962C25.2553 6.44767 25.0928 7.35661 25.0928 8.27454C25.1367 7.33744 25.0086 6.40021 24.7164 5.51992C24.4242 4.63964 23.974 3.83471 23.3933 3.15416C22.8125 2.47361 22.1133 1.93166 21.3382 1.56132C20.5631 1.19098 19.7284 1 18.8848 1C18.0413 1 17.2065 1.19098 16.4315 1.56132C15.6564 1.93166 14.9572 2.47361 14.3764 3.15416C13.7956 3.83471 13.3454 4.63964 13.0532 5.51992C12.761 6.40021 12.633 7.33744 12.6768 8.27454V16.6662C12.5966 15.004 11.9465 13.4392 10.8604 12.2941C9.77432 11.149 8.33486 10.5107 6.83843 10.5107C5.34201 10.5107 3.90254 11.149 2.81643 12.2941C1.73032 13.4392 1.08024 15.004 1.00005 16.6662L1.00005 37.5051C1.00226 40.6246 1.55678 43.7131 2.63197 46.5942C3.70716 49.4753 5.28195 52.0926 7.26643 54.2966C9.25091 56.5007 11.6062 58.2484 14.1979 59.4399C16.7895 60.6314 19.5668 61.2434 22.371 61.241H25.328C32.1278 61.241 38.649 58.2361 43.4572 52.8875C48.2653 47.5389 50.9665 40.2847 50.9665 32.7206C50.9762 29.8306 50.0315 27.0373 48.3119 24.8709Z" fill="#FFE500"/>
<path d="M42.9861 8.27458C44.3986 8.27458 45.7533 8.89878 46.7521 10.0099C47.7509 11.1209 48.3121 12.6279 48.3121 14.1992V7.75127C48.3121 6.17997 47.7509 4.67302 46.7521 3.56194C45.7533 2.45086 44.3986 1.82666 42.9861 1.82666C41.5736 1.82666 40.2189 2.45086 39.2201 3.56194C38.2213 4.67302 37.6602 6.17997 37.6602 7.75127V14.1992C37.6602 12.6279 38.2213 11.1209 39.2201 10.0099C40.2189 8.89878 41.5736 8.27458 42.9861 8.27458Z" fill="#FFF48C"/>
<path d="M18.8762 7.73254C20.5249 7.73254 22.1061 8.4611 23.2719 9.75795C24.4377 11.0548 25.0927 12.8137 25.0927 14.6477C25.0927 12.7939 25.7547 11.016 26.9331 9.70509C28.1115 8.39422 29.7097 7.65779 31.3763 7.65779C33.0428 7.65779 34.641 8.39422 35.8194 9.70509C36.9979 11.016 37.6599 12.7939 37.6599 14.6477V8.27454C37.6599 7.35661 37.4973 6.44767 37.1816 5.59962C36.8658 4.75156 36.4029 3.981 35.8194 3.33192C35.236 2.68285 34.5433 2.16797 33.7809 1.8167C33.0185 1.46542 32.2014 1.28462 31.3763 1.28462C30.5511 1.28462 29.734 1.46542 28.9716 1.8167C28.2093 2.16797 27.5166 2.68285 26.9331 3.33192C26.3496 3.981 25.8867 4.75156 25.571 5.59962C25.2552 6.44767 25.0927 7.35661 25.0927 8.27454C25.1365 7.33744 25.0084 6.40021 24.7162 5.51992C24.424 4.63964 23.9739 3.83471 23.3931 3.15416C22.8123 2.47361 22.1131 1.93166 21.338 1.56132C20.5629 1.19098 19.7282 1 18.8846 1C18.0411 1 17.2064 1.19098 16.4313 1.56132C15.6562 1.93166 14.957 2.47361 14.3762 3.15416C13.7954 3.83471 13.3453 4.63964 13.0531 5.51992C12.7609 6.40021 12.6328 7.33744 12.6766 8.27454V14.7225C12.6678 13.8097 12.8215 12.9039 13.1288 12.0575C13.4362 11.2111 13.8912 10.4408 14.4675 9.79094C15.0439 9.14112 15.7302 8.62467 16.4869 8.27138C17.2436 7.91809 18.0556 7.73496 18.8762 7.73254Z" fill="#FFF48C"/>
<path d="M12.6768 16.6101C12.6768 13.0181 10.0628 10.1061 6.83838 10.1061C3.61393 10.1061 1 13.0181 1 16.6101L1 25.0952C1 28.6873 3.61393 31.5992 6.83838 31.5992C10.0628 31.5992 12.6768 28.6873 12.6768 25.0952V16.6101Z" stroke="#45413C" stroke-linecap="round" stroke-linejoin="round"/>
<path d="M48.3286 24.8896C47.3297 23.6188 46.0975 22.6008 44.7151 21.9044C43.3326 21.2081 41.832 20.8494 40.3145 20.8527L14.76 20.8527C14.4858 20.8502 14.2139 20.9084 13.9601 21.024C13.7063 21.1396 13.4758 21.3102 13.2819 21.5259C13.088 21.7416 12.9346 21.9981 12.8307 22.2804C12.7268 22.5627 12.6744 22.8652 12.6767 23.1702V24.628C12.6767 27.3592 13.652 29.9785 15.3881 31.9098C17.1242 33.841 19.4789 34.926 21.9341 34.926L50.8992 34.926C50.8992 34.1971 50.9832 33.4495 50.9832 32.7206C50.9841 29.838 50.0403 27.0539 48.3286 24.8896Z" fill="#FFE500"/>
<path d="M14.76 24.871L40.3145 24.871C42.5258 24.8668 44.6837 25.6271 46.4896 27.0468C48.2956 28.4664 49.6603 30.4753 50.3951 32.7954H51C51.0022 31.2378 50.7283 29.695 50.194 28.2552C49.6596 26.8154 48.8754 25.507 47.886 24.4047C46.8967 23.3024 45.7217 22.4279 44.4283 21.8313C43.1348 21.2346 41.7483 20.9275 40.3481 20.9275L14.76 20.9275C14.4858 20.925 14.2139 20.9833 13.9601 21.0988C13.7063 21.2144 13.4758 21.385 13.2819 21.6007C13.088 21.8164 12.9346 22.0729 12.8307 22.3552C12.7268 22.6375 12.6744 22.94 12.6767 23.245V24.7028C12.6791 25.2977 12.724 25.8914 12.8111 26.4783C12.9421 26.0161 13.2012 25.6117 13.5512 25.323C13.9012 25.0344 14.3243 24.8762 14.76 24.871Z" fill="#FFF48C"/>
<path d="M50.9664 32.7206C50.9686 31.163 50.6947 29.6201 50.1604 28.1803C49.6261 26.7406 48.8418 25.4321 47.8524 24.3298C46.8631 23.2276 45.6881 22.3531 44.3947 21.7564C43.1012 21.1598 41.7147 20.8527 40.3145 20.8527L14.76 20.8527C14.4858 20.8502 14.2139 20.9084 13.9601 21.024C13.7063 21.1396 13.4758 21.3102 13.2819 21.5259C13.088 21.7416 12.9346 21.9981 12.8307 22.2804C12.7268 22.5627 12.6744 22.8652 12.6767 23.1702V24.628C12.6767 27.3592 13.652 29.9785 15.3881 31.9098C17.1242 33.841 19.4789 34.926 21.9341 34.926H34.6021" stroke="#45413C" stroke-linecap="round" stroke-linejoin="round"/>
<path d="M25.0926 8.27454L25.0926 20.8527" stroke="#45413C" stroke-linecap="round" stroke-linejoin="round"/>
<path d="M48.3119 24.8709L48.3119 7.75123C48.3119 6.17993 47.7508 4.67298 46.752 3.5619C45.7532 2.45082 44.3985 1.82662 42.986 1.82662C41.5735 1.82662 40.2188 2.45082 39.22 3.5619C38.2212 4.67298 37.66 6.17993 37.66 7.75123V8.27454C37.66 7.35661 37.4975 6.44767 37.1817 5.59962C36.8659 4.75156 36.4031 3.981 35.8196 3.33192C35.2361 2.68285 34.5434 2.16797 33.7811 1.8167C33.0187 1.46542 32.2016 1.28462 31.3764 1.28462C30.5513 1.28462 29.7342 1.46542 28.9718 1.8167C28.2094 2.16797 27.5167 2.68285 26.9332 3.33192C26.3498 3.981 25.8869 4.75156 25.5711 5.59962C25.2553 6.44767 25.0928 7.35661 25.0928 8.27454V8.27454C25.1367 7.33744 25.0086 6.40021 24.7164 5.51992C24.4242 4.63964 23.974 3.83471 23.3933 3.15416C22.8125 2.47361 22.1133 1.93166 21.3382 1.56132C20.5631 1.19098 19.7284 1 18.8848 1C18.0413 1 17.2065 1.19098 16.4315 1.56132C15.6564 1.93166 14.9572 2.47361 14.3764 3.15416C13.7956 3.83471 13.3454 4.63964 13.0532 5.51992C12.761 6.40021 12.633 7.33744 12.6768 8.27454V16.6662C12.5966 15.004 11.9465 13.4392 10.8604 12.2941C9.77432 11.149 8.33486 10.5107 6.83843 10.5107C5.34201 10.5107 3.90254 11.149 2.81643 12.2941C1.73032 13.4392 1.08024 15.004 1.00005 16.6662L1.00005 37.5051C1.00226 40.6246 1.55678 43.7131 2.63197 46.5942C3.70716 49.4753 5.28195 52.0926 7.26643 54.2966C9.25091 56.5007 11.6062 58.2484 14.1979 59.4399C16.7895 60.6314 19.5668 61.2434 22.371 61.241H25.328C32.1278 61.241 38.649 58.2361 43.4572 52.8875C48.2653 47.5389 50.9665 40.2847 50.9665 32.7206C50.9762 29.8306 50.0315 27.0373 48.3119 24.8709V24.8709Z" stroke="#45413C" stroke-linecap="round" stroke-linejoin="round"/>
<path d="M37.6598 8.27454V20.8527" stroke="#45413C" stroke-linecap="round" stroke-linejoin="round"/>
<path d="M34.3837 34.9259C33.0334 34.9259 31.6964 35.2218 30.4489 35.7966C29.2014 36.3714 28.0678 37.2139 27.113 38.276C26.1583 39.3382 25.4009 40.5991 24.8841 41.9868C24.3674 43.3745 24.1014 44.8619 24.1014 46.364L24.1014 49.7468" stroke="#45413C" stroke-linecap="round" stroke-linejoin="round"/>
</svg>
