<svg width="100" height="100" viewBox="0 0 100 100" fill="none" xmlns="http://www.w3.org/2000/svg">
<path d="M72.3119 43.8709V26.7512C72.3119 25.1799 71.7508 23.673 70.752 22.5619C69.7532 21.4508 68.3985 20.8266 66.986 20.8266C65.5735 20.8266 64.2188 21.4508 63.22 22.5619C62.2212 23.673 61.66 25.1799 61.66 26.7512V27.2745C61.66 26.3566 61.4975 25.4477 61.1817 24.5996C60.8659 23.7516 60.4031 22.981 59.8196 22.3319C59.2361 21.6828 58.5434 21.168 57.7811 20.8167C57.0187 20.4654 56.2016 20.2846 55.3764 20.2846C54.5513 20.2846 53.7342 20.4654 52.9718 20.8167C52.2094 21.168 51.5167 21.6828 50.9332 22.3319C50.3498 22.981 49.8869 23.7516 49.5711 24.5996C49.2553 25.4477 49.0928 26.3566 49.0928 27.2745C49.1367 26.3374 49.0086 25.4002 48.7164 24.5199C48.4242 23.6396 47.974 22.8347 47.3933 22.1542C46.8125 21.4736 46.1133 20.9317 45.3382 20.5613C44.5631 20.191 43.7284 20 42.8848 20C42.0413 20 41.2065 20.191 40.4315 20.5613C39.6564 20.9317 38.9572 21.4736 38.3764 22.1542C37.7956 22.8347 37.3454 23.6396 37.0532 24.5199C36.761 25.4002 36.633 26.3374 36.6768 27.2745V35.6662C36.5966 34.004 35.9465 32.4392 34.8604 31.2941C33.7743 30.149 32.3349 29.5107 30.8384 29.5107C29.342 29.5107 27.9025 30.149 26.8164 31.2941C25.7303 32.4392 25.0802 34.004 25.0001 35.6662L25.0001 56.5051C25.0023 59.6246 25.5568 62.7131 26.632 65.5942C27.7072 68.4753 29.2819 71.0926 31.2664 73.2966C33.2509 75.5007 35.6062 77.2484 38.1979 78.4399C40.7895 79.6314 43.5668 80.2434 46.371 80.241H49.328C56.1278 80.241 62.649 77.2361 67.4572 71.8875C72.2653 66.5389 74.9665 59.2847 74.9665 51.7206C74.9762 48.8306 74.0315 46.0373 72.3119 43.8709Z" fill="#FFE500"/>
<path d="M66.9861 27.2746C68.3986 27.2746 69.7533 27.8988 70.7521 29.0099C71.7509 30.1209 72.3121 31.6279 72.3121 33.1992V26.7513C72.3121 25.18 71.7509 23.673 70.7521 22.5619C69.7533 21.4509 68.3986 20.8267 66.9861 20.8267C65.5736 20.8267 64.2189 21.4509 63.2201 22.5619C62.2213 23.673 61.6602 25.18 61.6602 26.7513V33.1992C61.6602 31.6279 62.2213 30.1209 63.2201 29.0099C64.2189 27.8988 65.5736 27.2746 66.9861 27.2746Z" fill="#FFF48C"/>
<path d="M42.8762 26.7325C44.5249 26.7325 46.1061 27.4611 47.2719 28.7579C48.4377 30.0548 49.0927 31.8137 49.0927 33.6477C49.0927 31.7939 49.7547 30.016 50.9331 28.7051C52.1115 27.3942 53.7097 26.6578 55.3763 26.6578C57.0428 26.6578 58.641 27.3942 59.8194 28.7051C60.9979 30.016 61.6599 31.7939 61.6599 33.6477V27.2745C61.6599 26.3566 61.4973 25.4477 61.1816 24.5996C60.8658 23.7516 60.4029 22.981 59.8194 22.3319C59.236 21.6828 58.5433 21.168 57.7809 20.8167C57.0185 20.4654 56.2014 20.2846 55.3763 20.2846C54.5511 20.2846 53.734 20.4654 52.9716 20.8167C52.2093 21.168 51.5166 21.6828 50.9331 22.3319C50.3496 22.981 49.8867 23.7516 49.571 24.5996C49.2552 25.4477 49.0927 26.3566 49.0927 27.2745C49.1365 26.3374 49.0084 25.4002 48.7162 24.5199C48.424 23.6396 47.9739 22.8347 47.3931 22.1542C46.8123 21.4736 46.1131 20.9317 45.338 20.5613C44.5629 20.191 43.7282 20 42.8846 20C42.0411 20 41.2064 20.191 40.4313 20.5613C39.6562 20.9317 38.957 21.4736 38.3762 22.1542C37.7954 22.8347 37.3453 23.6396 37.0531 24.5199C36.7609 25.4002 36.6328 26.3374 36.6766 27.2745V33.7225C36.6678 32.8097 36.8215 31.9039 37.1288 31.0575C37.4362 30.2111 37.8912 29.4408 38.4675 28.7909C39.0439 28.1411 39.7302 27.6247 40.4869 27.2714C41.2436 26.9181 42.0556 26.735 42.8762 26.7325Z" fill="#FFF48C"/>
<path d="M36.6768 35.6101C36.6768 32.0181 34.0628 29.1061 30.8384 29.1061C27.6139 29.1061 25 32.0181 25 35.6101L25 44.0952C25 47.6873 27.6139 50.5992 30.8384 50.5992C34.0628 50.5992 36.6768 47.6873 36.6768 44.0952V35.6101Z" stroke="#45413C" stroke-linecap="round" stroke-linejoin="round"/>
<path d="M72.3286 43.8896C71.3297 42.6188 70.0975 41.6008 68.7151 40.9044C67.3326 40.2081 65.832 39.8494 64.3145 39.8527L38.76 39.8527C38.4858 39.8502 38.2139 39.9084 37.9601 40.024C37.7063 40.1396 37.4758 40.3102 37.2819 40.5259C37.088 40.7416 36.9346 40.9981 36.8307 41.2804C36.7268 41.5627 36.6744 41.8652 36.6767 42.1702V43.628C36.6767 46.3592 37.652 48.9785 39.3881 50.9098C41.1242 52.841 43.4789 53.926 45.9341 53.926L74.8992 53.926C74.8992 53.1971 74.9832 52.4495 74.9832 51.7206C74.9841 48.838 74.0403 46.0539 72.3286 43.8896Z" fill="#FFE500"/>
<path d="M38.76 43.871L64.3145 43.871C66.5258 43.8668 68.6837 44.6271 70.4896 46.0468C72.2956 47.4664 73.6603 49.4753 74.3951 51.7954H75C75.0022 50.2378 74.7283 48.695 74.194 47.2552C73.6596 45.8154 72.8754 44.507 71.886 43.4047C70.8967 42.3024 69.7217 41.4279 68.4283 40.8313C67.1348 40.2346 65.7483 39.9275 64.3481 39.9275L38.76 39.9275C38.4858 39.925 38.2139 39.9833 37.9601 40.0988C37.7063 40.2144 37.4758 40.385 37.2819 40.6007C37.088 40.8164 36.9346 41.0729 36.8307 41.3552C36.7268 41.6375 36.6744 41.94 36.6767 42.245V43.7028C36.6791 44.2977 36.724 44.8914 36.8111 45.4783C36.9421 45.0161 37.2012 44.6117 37.5512 44.323C37.9012 44.0344 38.3243 43.8762 38.76 43.871Z" fill="#FFF48C"/>
<path d="M74.9664 51.7206C74.9686 50.163 74.6947 48.6201 74.1604 47.1803C73.6261 45.7406 72.8418 44.4321 71.8524 43.3298C70.8631 42.2276 69.6881 41.3531 68.3947 40.7564C67.1012 40.1598 65.7147 39.8527 64.3145 39.8527H38.76C38.4858 39.8502 38.2139 39.9084 37.9601 40.024C37.7063 40.1396 37.4758 40.3102 37.2819 40.5259C37.088 40.7416 36.9346 40.9981 36.8307 41.2804C36.7268 41.5627 36.6744 41.8652 36.6767 42.1702V43.628C36.6767 46.3592 37.652 48.9785 39.3881 50.9098C41.1242 52.841 43.4789 53.926 45.9341 53.926H58.6021" stroke="#45413C" stroke-linecap="round" stroke-linejoin="round"/>
<path d="M49.0926 27.2745V39.8527" stroke="#45413C" stroke-linecap="round" stroke-linejoin="round"/>
<path d="M72.3119 43.8709V26.7512C72.3119 25.1799 71.7508 23.673 70.752 22.5619C69.7532 21.4508 68.3985 20.8266 66.986 20.8266C65.5735 20.8266 64.2188 21.4508 63.22 22.5619C62.2212 23.673 61.66 25.1799 61.66 26.7512V27.2745C61.66 26.3566 61.4975 25.4477 61.1817 24.5996C60.8659 23.7516 60.4031 22.981 59.8196 22.3319C59.2361 21.6828 58.5434 21.168 57.7811 20.8167C57.0187 20.4654 56.2016 20.2846 55.3764 20.2846C54.5513 20.2846 53.7342 20.4654 52.9718 20.8167C52.2094 21.168 51.5167 21.6828 50.9332 22.3319C50.3498 22.981 49.8869 23.7516 49.5711 24.5996C49.2553 25.4477 49.0928 26.3566 49.0928 27.2745V27.2745C49.1367 26.3374 49.0086 25.4002 48.7164 24.5199C48.4242 23.6396 47.974 22.8347 47.3933 22.1542C46.8125 21.4736 46.1133 20.9317 45.3382 20.5613C44.5631 20.191 43.7284 20 42.8848 20C42.0413 20 41.2065 20.191 40.4315 20.5613C39.6564 20.9317 38.9572 21.4736 38.3764 22.1542C37.7956 22.8347 37.3454 23.6396 37.0532 24.5199C36.761 25.4002 36.633 26.3374 36.6768 27.2745V35.6662C36.5966 34.004 35.9465 32.4392 34.8604 31.2941C33.7743 30.149 32.3349 29.5107 30.8384 29.5107C29.342 29.5107 27.9025 30.149 26.8164 31.2941C25.7303 32.4392 25.0802 34.004 25.0001 35.6662L25.0001 56.5051C25.0023 59.6246 25.5568 62.7131 26.632 65.5942C27.7072 68.4753 29.2819 71.0926 31.2664 73.2966C33.2509 75.5007 35.6062 77.2484 38.1979 78.4399C40.7895 79.6314 43.5668 80.2434 46.371 80.241H49.328C56.1278 80.241 62.649 77.2361 67.4572 71.8875C72.2653 66.5389 74.9665 59.2847 74.9665 51.7206C74.9762 48.8306 74.0315 46.0373 72.3119 43.8709V43.8709Z" stroke="#45413C" stroke-linecap="round" stroke-linejoin="round"/>
<path d="M61.6598 27.2745V39.8527" stroke="#45413C" stroke-linecap="round" stroke-linejoin="round"/>
<path d="M58.3837 53.9259C57.0334 53.9259 55.6964 54.2218 54.4489 54.7966C53.2014 55.3714 52.0678 56.2139 51.113 57.276C50.1583 58.3382 49.4009 59.5991 48.8841 60.9868C48.3674 62.3745 48.1014 63.8619 48.1014 65.364V68.7468" stroke="#45413C" stroke-linecap="round" stroke-linejoin="round"/>
<circle cx="50" cy="50" r="48" stroke="#F2F2F2" stroke-width="4"/>
</svg>
