<svg width="100" height="100" viewBox="0 0 100 100" fill="none" xmlns="http://www.w3.org/2000/svg">
<circle cx="50" cy="50" r="48" transform="rotate(-180 50 50)" stroke="#F2F2F2" stroke-width="4"/>
<path d="M68.3787 14.4023C67.046 14.2172 65.6943 14.5687 64.6206 15.3796C63.547 16.1905 62.8392 17.3946 62.6529 18.7271L58.5921 46.4828L54.5313 18.8083C54.4573 18.1333 54.2485 17.48 53.9174 16.887C53.5864 16.2941 53.1397 15.7737 52.6038 15.3565C52.068 14.9393 51.4539 14.6339 50.7979 14.4583C50.1419 14.2827 49.4573 14.2406 48.7847 14.3343C48.1121 14.4281 47.4652 14.6558 46.8822 15.0041C46.2992 15.3524 45.7921 15.8141 45.3907 16.3619C44.9894 16.9097 44.7021 17.5325 44.5458 18.1934C44.3895 18.8542 44.3674 19.5397 44.4808 20.2093L47.4249 41.2037C46.6459 40.5256 45.6883 40.086 44.6663 39.9374C43.6443 39.7888 42.6011 39.9374 41.6612 40.3656C40.7214 40.7937 39.9247 41.4833 39.3661 42.352C38.8076 43.2207 38.5109 44.2318 38.5114 45.2646V50.1375C38.4271 48.765 37.8225 47.4763 36.8208 46.5342C35.8191 45.5922 34.4957 45.0676 33.1206 45.0676C31.7455 45.0676 30.4222 45.5922 29.4205 46.5342C28.4188 47.4763 27.8142 48.765 27.7299 50.1375V64.7768C27.6587 69.9998 29.5657 75.0564 33.0681 78.9316C36.5706 82.8069 41.4092 85.2139 46.6127 85.6697C49.4241 85.8563 52.2437 85.4558 54.8919 84.4935C57.5401 83.5313 59.9591 82.0283 61.9949 80.0804C64.0307 78.1324 65.6388 75.7821 66.7169 73.1788C67.7949 70.5756 68.3194 67.7765 68.2568 64.9595C68.2568 47.6401 68.2568 53.4268 72.7034 20.1687C72.8009 19.5057 72.7662 18.83 72.6012 18.1806C72.4362 17.5311 72.1443 16.9207 71.7422 16.3846C71.3402 15.8486 70.836 15.3974 70.2587 15.0572C69.6814 14.7169 69.0424 14.4944 68.3787 14.4023Z" fill="#FFE500"/>
<path d="M45.2322 25.3259C45.3462 24.1762 45.8343 23.0957 46.6215 22.2501C47.4087 21.4045 48.4516 20.8404 49.5902 20.6445C50.7288 20.4486 51.9003 20.6316 52.9249 21.1655C53.9494 21.6994 54.7706 22.5546 55.2624 23.6001L54.572 18.8489C54.498 18.1739 54.2893 17.5205 53.9582 16.9276C53.6271 16.3347 53.1804 15.8142 52.6446 15.3971C52.1087 14.9799 51.4946 14.6745 50.8386 14.4989C50.1826 14.3233 49.4981 14.2811 48.8255 14.3749C48.1529 14.4687 47.506 14.6964 46.923 15.0447C46.34 15.393 45.8328 15.8547 45.4315 16.4025C45.0302 16.9503 44.7428 17.5731 44.5865 18.234C44.4302 18.8948 44.4081 19.5803 44.5215 20.2499L45.2322 25.3259Z" fill="#FFF48C"/>
<path d="M68.3788 14.4023C67.0461 14.2171 65.6944 14.5686 64.6207 15.3795C63.5471 16.1905 62.8393 17.3945 62.653 18.727L62.0236 23.0721C62.4961 21.9801 63.3225 21.0789 64.3695 20.5137C65.4165 19.9484 66.6233 19.7519 67.7955 19.9559C68.9677 20.1599 70.0372 20.7524 70.8318 21.6381C71.6263 22.5238 72.0997 23.6511 72.1756 24.8386C72.3787 23.3767 72.5817 21.8336 72.805 20.1686C72.9019 19.4981 72.8635 18.815 72.6923 18.1596C72.521 17.5041 72.2202 16.8896 71.8077 16.3522C71.3952 15.8148 70.8793 15.3654 70.2904 15.0305C69.7015 14.6956 69.0515 14.482 68.3788 14.4023Z" fill="#FFF48C"/>
<path d="M54.5516 64.9594C53.3677 64.9594 52.1955 65.1926 51.1017 65.6456C50.008 66.0987 49.0141 66.7627 48.177 67.5999C47.3399 68.437 46.6759 69.4308 46.2228 70.5245C45.7698 71.6183 45.5366 72.7906 45.5366 73.9744V76.6343" stroke="#45413C" stroke-linecap="round" stroke-linejoin="round"/>
<path d="M68.3787 14.4023C67.046 14.2172 65.6943 14.5687 64.6206 15.3796C63.547 16.1905 62.8392 17.3946 62.6529 18.7271L58.5921 46.4828L54.5313 18.8083C54.4573 18.1333 54.2485 17.48 53.9174 16.887C53.5864 16.2941 53.1397 15.7737 52.6038 15.3565C52.068 14.9393 51.4539 14.6339 50.7979 14.4583C50.1419 14.2827 49.4573 14.2406 48.7847 14.3343C48.1121 14.4281 47.4652 14.6558 46.8822 15.0041C46.2992 15.3524 45.7921 15.8141 45.3907 16.3619C44.9894 16.9097 44.7021 17.5325 44.5458 18.1934C44.3895 18.8542 44.3674 19.5397 44.4808 20.2093L47.4249 41.2037C46.6459 40.5256 45.6883 40.086 44.6663 39.9374C43.6443 39.7888 42.6011 39.9374 41.6612 40.3656C40.7214 40.7937 39.9247 41.4833 39.3661 42.352C38.8076 43.2207 38.5109 44.2318 38.5114 45.2646V50.1375C38.4271 48.765 37.8225 47.4763 36.8208 46.5342C35.8191 45.5922 34.4957 45.0676 33.1206 45.0676C31.7455 45.0676 30.4222 45.5922 29.4205 46.5342C28.4188 47.4763 27.8142 48.765 27.7299 50.1375V64.7768C27.6587 69.9998 29.5657 75.0564 33.0681 78.9316C36.5706 82.8069 41.4092 85.2139 46.6127 85.6697C49.4241 85.8563 52.2437 85.4558 54.8919 84.4935C57.5401 83.5313 59.9591 82.0283 61.9949 80.0804C64.0307 78.1324 65.6388 75.7821 66.7169 73.1788C67.7949 70.5756 68.3194 67.7765 68.2568 64.9595C68.2568 47.6401 68.2568 53.4268 72.7034 20.1687C72.8009 19.5057 72.7662 18.83 72.6012 18.1806C72.4362 17.5311 72.1443 16.9207 71.7422 16.3846C71.3402 15.8486 70.836 15.3974 70.2587 15.0572C69.6814 14.7169 69.0424 14.4944 68.3787 14.4023V14.4023Z" stroke="#45413C" stroke-linecap="round" stroke-linejoin="round"/>
<path d="M38.5723 50.2187C38.5723 47.2359 36.1543 44.8178 33.1714 44.8178C30.1886 44.8178 27.7706 47.2359 27.7706 50.2187V56.7972C27.7706 59.78 30.1886 62.1981 33.1714 62.1981C36.1543 62.1981 38.5723 59.78 38.5723 56.7972V50.2187Z" fill="#FFE500"/>
<path d="M49.3538 45.3254C49.3538 42.3426 46.9358 39.9245 43.953 39.9245C40.9701 39.9245 38.5521 42.3426 38.5521 45.3254V56.7769C38.5521 59.7597 40.9701 62.1778 43.953 62.1778C46.9358 62.1778 49.3538 59.7597 49.3538 56.7769V45.3254Z" fill="#FFE500"/>
<path d="M33.1714 44.8584C31.7426 44.8584 30.3719 45.4246 29.3596 46.4331C28.3473 47.4416 27.7759 48.8101 27.7706 50.239V55.0104C27.7759 53.5816 28.3473 52.213 29.3596 51.2046C30.3719 50.1961 31.7426 49.6298 33.1714 49.6299C34.5985 49.6299 35.967 50.1967 36.9761 51.2058C37.9851 52.2148 38.552 53.5834 38.552 55.0104V50.1375C38.5254 48.7281 37.9468 47.3855 36.9406 46.3983C35.9345 45.4111 34.581 44.8581 33.1714 44.8584Z" fill="#FFF48C"/>
<path d="M43.953 39.9245C42.5222 39.9298 41.1516 40.5006 40.1399 41.5123C39.1282 42.524 38.5574 43.8946 38.5521 45.3254V50.1984C38.5681 48.7765 39.1442 47.4184 40.1553 46.4187C41.1665 45.419 42.531 44.8583 43.953 44.8584C45.3818 44.8584 46.7525 45.4246 47.7648 46.4331C48.7771 47.4416 49.3485 48.8101 49.3538 50.239V45.366C49.3565 44.6541 49.2189 43.9486 48.949 43.2898C48.679 42.6311 48.2819 42.032 47.7804 41.5267C47.2789 41.0214 46.6827 40.6198 46.026 40.3449C45.3693 40.07 44.6649 39.9272 43.953 39.9245Z" fill="#FFF48C"/>
<path d="M38.5723 50.2187C38.5723 47.2359 36.1543 44.8178 33.1714 44.8178C30.1886 44.8178 27.7706 47.2359 27.7706 50.2187V56.7972C27.7706 59.78 30.1886 62.1981 33.1714 62.1981C36.1543 62.1981 38.5723 59.78 38.5723 56.7972V50.2187Z" stroke="#45413C" stroke-linecap="round" stroke-linejoin="round"/>
<path d="M49.3538 45.3254C49.3538 42.3426 46.9358 39.9245 43.953 39.9245C40.9701 39.9245 38.5521 42.3426 38.5521 45.3254V56.7769C38.5521 59.7597 40.9701 62.1778 43.953 62.1778C46.9358 62.1778 49.3538 59.7597 49.3538 56.7769V45.3254Z" stroke="#45413C" stroke-linecap="round" stroke-linejoin="round"/>
<path d="M68.2569 64.9595C68.2516 62.1664 67.1396 59.4891 65.1645 57.5141C63.1895 55.539 60.5123 54.4271 57.7191 54.4217H41.3134C40.9464 54.4217 40.583 54.4943 40.2442 54.6354C39.9054 54.7764 39.5978 54.9831 39.3393 55.2436C39.0807 55.504 38.8762 55.8131 38.7376 56.1529C38.599 56.4928 38.5291 56.8567 38.5317 57.2237C38.5317 59.2753 39.3468 61.243 40.7975 62.6937C42.2483 64.1445 44.2159 64.9595 46.2676 64.9595H54.5517" fill="#FFE500"/>
<path d="M68.2569 64.9595C68.2516 62.1664 67.1396 59.4891 65.1645 57.5141C63.1895 55.539 60.5123 54.4271 57.7191 54.4217H41.3134C40.9464 54.4217 40.583 54.4943 40.2442 54.6354C39.9054 54.7764 39.5978 54.9831 39.3393 55.2436C39.0807 55.504 38.8762 55.8131 38.7376 56.1529C38.599 56.4928 38.5291 56.8567 38.5317 57.2237C38.5366 58.1254 38.7016 59.0191 39.019 59.8632C39.2757 59.4925 39.6187 59.1898 40.0184 58.9811C40.4181 58.7724 40.8625 58.664 41.3134 58.6652H58.6125C60.6563 58.6706 62.6548 59.2679 64.3663 60.3849C66.0779 61.5019 67.4292 63.0908 68.2569 64.9595Z" fill="#FFF48C"/>
<path d="M68.2569 64.9595C68.2516 62.1664 67.1396 59.4891 65.1645 57.5141C63.1895 55.539 60.5123 54.4271 57.7191 54.4217H41.3134C40.9464 54.4217 40.583 54.4943 40.2442 54.6354C39.9054 54.7764 39.5978 54.9831 39.3393 55.2436C39.0807 55.504 38.8762 55.8131 38.7376 56.1529C38.599 56.4928 38.5291 56.8567 38.5317 57.2237C38.5317 59.2753 39.3468 61.243 40.7975 62.6937C42.2483 64.1445 44.2159 64.9595 46.2676 64.9595H54.5517" stroke="#45413C" stroke-linecap="round" stroke-linejoin="round"/>
</svg>
