<svg width="47" height="74" viewBox="0 0 47 74" fill="none" xmlns="http://www.w3.org/2000/svg">
<path d="M41.3787 1.40234C40.046 1.21715 38.6943 1.56865 37.6206 2.3796C36.547 3.19054 35.8392 4.39458 35.6529 5.72711L31.5921 33.4828L27.5313 5.80833C27.4573 5.13328 27.2485 4.47995 26.9174 3.88703C26.5864 3.29411 26.1397 2.77365 25.6038 2.35647C25.068 1.93929 24.4539 1.63386 23.7979 1.45829C23.1419 1.28272 22.4573 1.24056 21.7847 1.33431C21.1121 1.42807 20.4652 1.65583 19.8822 2.00411C19.2992 2.35239 18.7921 2.81411 18.3907 3.36193C17.9894 3.90975 17.7021 4.53252 17.5458 5.19338C17.3895 5.85424 17.3674 6.53975 17.4808 7.20931L20.4249 28.2037C19.6459 27.5256 18.6883 27.086 17.6663 26.9374C16.6443 26.7888 15.6011 26.9374 14.6612 27.3656C13.7214 27.7937 12.9247 28.4833 12.3661 29.352C11.8076 30.2207 11.5109 31.2318 11.5114 32.2646V37.1375C11.4271 35.765 10.8225 34.4763 9.82076 33.5342C8.81906 32.5922 7.49574 32.0676 6.12063 32.0676C4.74552 32.0676 3.4222 32.5922 2.4205 33.5342C1.4188 34.4763 0.814171 35.765 0.729897 37.1375V51.7768C0.658718 56.9998 2.56573 62.0564 6.06815 65.9316C9.57057 69.8069 14.4092 72.2139 19.6127 72.6697C22.4241 72.8563 25.2437 72.4558 27.8919 71.4935C30.5401 70.5313 32.9591 69.0283 34.9949 67.0804C37.0307 65.1324 38.6388 62.7821 39.7169 60.1788C40.7949 57.5756 41.3194 54.7765 41.2568 51.9595C41.2568 34.6401 41.2568 40.4268 45.7034 7.1687C45.8009 6.50573 45.7662 5.83003 45.6012 5.18056C45.4362 4.53109 45.1443 3.92071 44.7422 3.38463C44.3402 2.84856 43.836 2.39739 43.2587 2.05717C42.6814 1.71694 42.0424 1.49438 41.3787 1.40234Z" fill="#FFE500"/>
<path d="M18.2322 12.3259C18.3462 11.1762 18.8343 10.0957 19.6215 9.25008C20.4087 8.40445 21.4516 7.84043 22.5902 7.64452C23.7288 7.4486 24.9003 7.63162 25.9249 8.1655C26.9494 8.69937 27.7706 9.55462 28.2624 10.6001L27.572 5.84891C27.498 5.17387 27.2893 4.52054 26.9582 3.92762C26.6271 3.3347 26.1804 2.81424 25.6446 2.39706C25.1087 1.97987 24.4946 1.67445 23.8386 1.49888C23.1826 1.3233 22.4981 1.28115 21.8255 1.3749C21.1529 1.46866 20.506 1.69642 19.923 2.0447C19.34 2.39298 18.8328 2.8547 18.4315 3.40252C18.0302 3.95034 17.7428 4.57311 17.5865 5.23397C17.4302 5.89483 17.4081 6.58034 17.5215 7.2499L18.2322 12.3259Z" fill="#FFF48C"/>
<path d="M41.3788 1.40227C40.0461 1.21708 38.6944 1.56859 37.6207 2.37953C36.5471 3.19048 35.8393 4.39451 35.653 5.72704L35.0236 10.0721C35.4961 8.98013 36.3225 8.07895 37.3695 7.51368C38.4165 6.9484 39.6233 6.75194 40.7955 6.95591C41.9677 7.15988 43.0372 7.75242 43.8318 8.63812C44.6263 9.52382 45.0997 10.6511 45.1756 11.8386C45.3787 10.3767 45.5817 8.83357 45.805 7.16863C45.9019 6.49813 45.8635 5.81502 45.6923 5.15957C45.521 4.50412 45.2202 3.88959 44.8077 3.3522C44.3952 2.81481 43.8793 2.36542 43.2904 2.03054C42.7015 1.69565 42.0515 1.48203 41.3788 1.40227Z" fill="#FFF48C"/>
<path d="M27.5516 51.9594C26.3677 51.9594 25.1955 52.1926 24.1017 52.6456C23.008 53.0987 22.0141 53.7627 21.177 54.5999C20.3399 55.437 19.6759 56.4308 19.2228 57.5245C18.7698 58.6183 18.5366 59.7906 18.5366 60.9744V63.6343" stroke="#45413C" stroke-linecap="round" stroke-linejoin="round"/>
<path d="M41.3787 1.40234C40.046 1.21715 38.6943 1.56865 37.6206 2.3796C36.547 3.19054 35.8392 4.39458 35.6529 5.72711L31.5921 33.4828L27.5313 5.80833C27.4573 5.13328 27.2485 4.47995 26.9174 3.88703C26.5864 3.29411 26.1397 2.77365 25.6038 2.35647C25.068 1.93929 24.4539 1.63386 23.7979 1.45829C23.1419 1.28272 22.4573 1.24056 21.7847 1.33431C21.1121 1.42807 20.4652 1.65583 19.8822 2.00411C19.2992 2.35239 18.7921 2.81411 18.3907 3.36193C17.9894 3.90975 17.7021 4.53252 17.5458 5.19338C17.3895 5.85424 17.3674 6.53975 17.4808 7.20931L20.4249 28.2037C19.6459 27.5256 18.6883 27.086 17.6663 26.9374C16.6443 26.7888 15.6011 26.9374 14.6612 27.3656C13.7214 27.7937 12.9247 28.4833 12.3661 29.352C11.8076 30.2207 11.5109 31.2318 11.5114 32.2646V37.1375C11.4271 35.765 10.8225 34.4763 9.82076 33.5342C8.81906 32.5922 7.49574 32.0676 6.12063 32.0676C4.74552 32.0676 3.4222 32.5922 2.4205 33.5342C1.4188 34.4763 0.814171 35.765 0.729897 37.1375V51.7768C0.658718 56.9998 2.56573 62.0564 6.06815 65.9316C9.57057 69.8069 14.4092 72.2139 19.6127 72.6697C22.4241 72.8563 25.2437 72.4558 27.8919 71.4935C30.5401 70.5313 32.9591 69.0283 34.9949 67.0804C37.0307 65.1324 38.6388 62.7821 39.7169 60.1788C40.7949 57.5756 41.3194 54.7765 41.2568 51.9595C41.2568 34.6401 41.2568 40.4268 45.7034 7.1687C45.8009 6.50573 45.7662 5.83003 45.6012 5.18056C45.4362 4.53109 45.1443 3.92071 44.7422 3.38463C44.3402 2.84856 43.836 2.39739 43.2587 2.05717C42.6814 1.71694 42.0424 1.49438 41.3787 1.40234V1.40234Z" stroke="#45413C" stroke-linecap="round" stroke-linejoin="round"/>
<path d="M11.5723 37.2187C11.5723 34.2359 9.15427 31.8178 6.17145 31.8178C3.18862 31.8178 0.770557 34.2359 0.770557 37.2187V43.7972C0.770557 46.78 3.18862 49.1981 6.17145 49.1981C9.15427 49.1981 11.5723 46.78 11.5723 43.7972V37.2187Z" fill="#FFE500"/>
<path d="M22.3538 32.3254C22.3538 29.3426 19.9358 26.9245 16.953 26.9245C13.9701 26.9245 11.5521 29.3426 11.5521 32.3254V43.7769C11.5521 46.7597 13.9701 49.1778 16.953 49.1778C19.9358 49.1778 22.3538 46.7597 22.3538 43.7769V32.3254Z" fill="#FFE500"/>
<path d="M6.17145 31.8584C4.74255 31.8584 3.37188 32.4246 2.3596 33.4331C1.34732 34.4416 0.775929 35.8101 0.770557 37.239V42.0104C0.775929 40.5816 1.34732 39.213 2.3596 38.2046C3.37188 37.1961 4.74255 36.6298 6.17145 36.6299C7.59847 36.6299 8.96704 37.1967 9.97609 38.2058C10.9851 39.2148 11.552 40.5834 11.552 42.0104V37.1375C11.5254 35.7281 10.9468 34.3855 9.94064 33.3983C8.93445 32.4111 7.58105 31.8581 6.17145 31.8584Z" fill="#FFF48C"/>
<path d="M16.953 26.9245C15.5222 26.9298 14.1516 27.5006 13.1399 28.5123C12.1282 29.524 11.5574 30.8946 11.5521 32.3254V37.1984C11.5681 35.7765 12.1442 34.4184 13.1553 33.4187C14.1665 32.419 15.531 31.8583 16.953 31.8584C18.3818 31.8584 19.7525 32.4246 20.7648 33.4331C21.7771 34.4416 22.3485 35.8101 22.3538 37.239V32.366C22.3565 31.6541 22.2189 30.9486 21.949 30.2898C21.679 29.6311 21.2819 29.032 20.7804 28.5267C20.2789 28.0214 19.6827 27.6198 19.026 27.3449C18.3693 27.07 17.6649 26.9272 16.953 26.9245Z" fill="#FFF48C"/>
<path d="M11.5723 37.2187C11.5723 34.2359 9.15427 31.8178 6.17145 31.8178C3.18862 31.8178 0.770557 34.2359 0.770557 37.2187V43.7972C0.770557 46.78 3.18862 49.1981 6.17145 49.1981C9.15427 49.1981 11.5723 46.78 11.5723 43.7972V37.2187Z" stroke="#45413C" stroke-linecap="round" stroke-linejoin="round"/>
<path d="M22.3538 32.3254C22.3538 29.3426 19.9358 26.9245 16.953 26.9245C13.9701 26.9245 11.5521 29.3426 11.5521 32.3254V43.7769C11.5521 46.7597 13.9701 49.1778 16.953 49.1778C19.9358 49.1778 22.3538 46.7597 22.3538 43.7769V32.3254Z" stroke="#45413C" stroke-linecap="round" stroke-linejoin="round"/>
<path d="M41.2569 51.9595C41.2516 49.1664 40.1396 46.4891 38.1645 44.5141C36.1895 42.539 33.5123 41.4271 30.7191 41.4217H14.3134C13.9464 41.4217 13.583 41.4943 13.2442 41.6354C12.9054 41.7764 12.5978 41.9831 12.3393 42.2436C12.0807 42.504 11.8762 42.8131 11.7376 43.1529C11.599 43.4928 11.5291 43.8567 11.5317 44.2237C11.5317 46.2753 12.3468 48.243 13.7975 49.6937C15.2483 51.1445 17.2159 51.9595 19.2676 51.9595H27.5517" fill="#FFE500"/>
<path d="M41.2569 51.9595C41.2516 49.1664 40.1396 46.4891 38.1645 44.5141C36.1895 42.539 33.5123 41.4271 30.7191 41.4217H14.3134C13.9464 41.4217 13.583 41.4943 13.2442 41.6354C12.9054 41.7764 12.5978 41.9831 12.3393 42.2436C12.0807 42.504 11.8762 42.8131 11.7376 43.1529C11.599 43.4928 11.5291 43.8567 11.5317 44.2237C11.5366 45.1254 11.7016 46.0191 12.019 46.8632C12.2757 46.4925 12.6187 46.1898 13.0184 45.9811C13.4181 45.7724 13.8625 45.664 14.3134 45.6652H31.6125C33.6563 45.6706 35.6548 46.2679 37.3663 47.3849C39.0779 48.5019 40.4292 50.0908 41.2569 51.9595Z" fill="#FFF48C"/>
<path d="M41.2569 51.9595C41.2516 49.1664 40.1396 46.4891 38.1645 44.5141C36.1895 42.539 33.5123 41.4271 30.7191 41.4217H14.3134C13.9464 41.4217 13.583 41.4943 13.2442 41.6354C12.9054 41.7764 12.5978 41.9831 12.3393 42.2436C12.0807 42.504 11.8762 42.8131 11.7376 43.1529C11.599 43.4928 11.5291 43.8567 11.5317 44.2237C11.5317 46.2753 12.3468 48.243 13.7975 49.6937C15.2483 51.1445 17.2159 51.9595 19.2676 51.9595H27.5517" stroke="#45413C" stroke-linecap="round" stroke-linejoin="round"/>
</svg>
